<?xml version="1.0" standalone="no"?>
<!DOCTYPE svg PUBLIC "-//W3C//DTD SVG 20010904//EN"
 "http://www.w3.org/TR/2001/REC-SVG-20010904/DTD/svg10.dtd">
<svg version="1.0" xmlns="http://www.w3.org/2000/svg"
 width="700.000000pt" height="700.000000pt" viewBox="0 0 700.000000 700.000000"
 preserveAspectRatio="xMidYMid meet">
<metadata>
Created by potrace 1.14, written by Peter Selinger 2001-2017
</metadata>
<g transform="translate(0.000000,700.000000) scale(0.100000,-0.100000)"
fill="#000000" stroke="none">
<path d="M3697 6808 c4 -18 3 -20 -6 -8 -7 10 -11 11 -11 3 0 -7 -5 -13 -11
-13 -5 0 -8 4 -5 8 3 5 -1 9 -9 9 -8 0 -11 -5 -8 -10 4 -6 0 -8 -10 -4 -10 4
-17 1 -17 -6 0 -8 -3 -8 -8 -2 -9 14 -91 11 -117 -3 -11 -5 -24 -10 -30 -10
-5 0 -11 -6 -13 -14 -2 -8 0 -9 5 -3 11 14 33 17 33 5 0 -5 5 -10 10 -10 6 0
9 5 8 11 -2 6 3 14 10 16 7 3 12 -3 12 -14 0 -10 3 -14 8 -8 9 14 52 13 52 0
0 -5 -18 -9 -40 -9 -24 1 -37 -2 -34 -8 4 -6 -3 -5 -16 2 -12 6 -28 9 -36 6
-7 -3 -18 3 -23 12 -7 12 -10 13 -11 3 0 -8 -7 -11 -20 -8 -11 3 -18 1 -14 -4
3 -5 0 -9 -5 -9 -6 0 -11 -5 -11 -11 0 -5 5 -7 12 -3 6 4 8 3 5 -4 -4 -5 -25
-9 -47 -7 -29 2 -43 -1 -50 -13 -6 -11 -9 -12 -10 -4 0 7 -5 10 -10 7 -6 -4
-7 -11 -4 -17 4 -6 0 -6 -13 1 -11 6 -23 7 -27 4 -3 -3 -6 -2 -6 4 0 5 -7 10
-15 10 -11 0 -12 -4 -4 -14 13 -15 13 -15 -18 -18 -12 -1 -20 1 -18 5 3 4 -9
7 -25 6 -16 0 -32 -6 -35 -13 -5 -16 7 -17 21 -3 7 7 11 6 11 -3 0 -9 -10 -14
-26 -13 -30 2 -53 -12 -45 -26 4 -6 -4 -4 -17 3 -21 11 -23 11 -11 -4 11 -13
10 -16 -6 -22 -11 -3 -25 -4 -30 -3 -6 2 -18 -6 -26 -17 -9 -12 -15 -15 -16
-7 0 7 -5 10 -10 7 -6 -4 -7 -12 -3 -18 4 -7 -2 -5 -13 3 -10 8 -16 10 -12 6
13 -15 -13 -38 -27 -26 -10 8 -17 5 -29 -12 -9 -12 -16 -18 -16 -13 0 5 -7 0
-16 -11 -8 -10 -13 -14 -10 -7 4 6 1 15 -5 19 -8 4 -9 3 -5 -4 4 -7 2 -12 -4
-12 -6 0 -8 -5 -4 -12 5 -8 0 -9 -15 -5 -19 5 -20 3 -10 -9 7 -8 8 -14 3 -13
-28 5 -48 -5 -81 -41 -26 -28 -39 -36 -45 -27 -5 8 -8 7 -8 -5 0 -20 -39 -50
-54 -41 -6 4 -4 -2 4 -12 8 -10 10 -16 5 -13 -13 8 -26 -1 -42 -27 -6 -11 -16
-19 -22 -18 -6 2 -16 -7 -22 -18 -9 -17 -13 -19 -20 -8 -7 11 -9 9 -9 -7 0
-12 -8 -28 -17 -35 -17 -13 -17 -13 -3 6 14 19 14 19 -3 6 -10 -8 -16 -20 -13
-27 3 -8 0 -11 -10 -7 -9 3 -14 0 -12 -8 2 -8 -4 -13 -13 -13 -12 1 -15 -4
-11 -19 4 -14 2 -18 -7 -13 -8 5 -14 0 -18 -13 -3 -12 -10 -21 -15 -21 -5 0
-6 -5 -2 -12 5 -7 2 -9 -9 -5 -10 4 -14 2 -11 -7 3 -7 -5 -18 -18 -24 -19 -9
-20 -11 -5 -11 10 -1 15 -6 12 -12 -4 -6 -9 -8 -12 -5 -2 2 -13 -3 -22 -12
-12 -12 -15 -21 -8 -30 7 -9 5 -11 -8 -5 -14 5 -17 3 -12 -10 3 -9 1 -19 -5
-23 -7 -5 -8 -2 -3 6 5 9 4 11 -4 6 -9 -6 -9 -11 1 -24 10 -12 10 -14 1 -8 -7
4 -13 3 -13 -2 0 -5 -9 -19 -20 -32 -11 -12 -17 -27 -14 -31 3 -5 -1 -9 -8 -9
-10 0 -10 -2 1 -9 11 -7 9 -11 -8 -20 -12 -7 -19 -17 -15 -23 5 -7 2 -9 -9 -5
-9 3 -18 0 -21 -9 -4 -10 -2 -13 7 -8 8 5 8 2 -2 -9 -7 -9 -18 -14 -23 -11 -5
3 -12 -4 -15 -16 -4 -16 -8 -18 -14 -8 -6 9 -9 6 -9 -12 0 -18 -3 -21 -9 -12
-6 10 -10 8 -14 -8 -4 -16 -11 -21 -22 -17 -13 6 -14 3 -4 -16 9 -17 9 -20 -1
-10 -10 9 -18 6 -36 -14 -26 -28 -31 -38 -12 -27 7 4 8 3 4 -4 -4 -7 -16 -12
-26 -12 -14 0 -18 -5 -13 -17 5 -12 3 -14 -7 -8 -10 6 -12 4 -7 -8 3 -9 1 -19
-5 -23 -7 -4 -8 -3 -4 4 4 7 3 12 -3 12 -6 0 -13 -11 -17 -25 -3 -14 -10 -22
-15 -19 -5 3 -9 -2 -9 -11 0 -9 -4 -14 -9 -11 -5 4 -7 -4 -4 -16 4 -19 3 -20
-6 -8 -10 15 -12 13 -15 -12 0 -7 -8 -13 -16 -13 -8 0 -16 -7 -16 -15 -1 -8
-2 -21 -3 -28 0 -6 -4 -11 -8 -11 -20 3 -26 -2 -13 -11 11 -7 11 -10 2 -10 -7
0 -10 -4 -7 -10 3 -5 -2 -10 -12 -10 -15 0 -16 -2 -3 -10 13 -8 12 -10 -4 -10
-13 0 -17 -5 -13 -20 3 -11 1 -18 -4 -14 -5 3 -14 2 -20 -2 -8 -4 -7 -9 2 -15
12 -7 12 -9 0 -9 -8 0 -11 -6 -7 -16 3 -8 2 -13 -3 -10 -4 3 -17 -2 -27 -10
-18 -15 -18 -15 0 -10 15 5 15 2 -5 -19 -13 -13 -30 -25 -38 -25 -7 0 -11 -6
-8 -14 6 -15 -19 -30 -34 -21 -5 4 -6 -2 -2 -11 4 -11 2 -15 -4 -11 -6 4 -10
0 -9 -10 0 -9 -5 -18 -13 -21 -9 -3 -11 0 -6 8 5 9 4 11 -4 6 -9 -6 -9 -11 1
-24 7 -9 8 -13 2 -9 -7 4 -18 -1 -25 -10 -12 -14 -12 -16 0 -8 10 5 12 4 7 -3
-4 -7 -14 -12 -23 -12 -9 0 -13 -6 -9 -15 5 -14 -6 -20 -29 -15 -5 1 -7 -2 -2
-6 4 -4 -1 -16 -10 -26 -13 -15 -14 -18 -2 -15 8 2 11 2 6 0 -4 -3 -5 -9 -2
-14 4 -5 -1 -6 -9 -3 -11 4 -16 0 -16 -11 0 -11 -5 -15 -14 -12 -11 4 -13 1
-9 -10 5 -12 3 -14 -8 -8 -12 8 -12 6 0 -8 12 -15 11 -17 -3 -17 -11 0 -14 -5
-10 -12 5 -7 2 -9 -8 -6 -8 4 -15 0 -15 -8 0 -7 3 -11 7 -9 3 2 6 -5 6 -15 0
-14 -4 -16 -17 -10 -13 7 -15 4 -14 -20 1 -19 -2 -27 -11 -23 -6 2 -15 -1 -20
-8 -5 -8 -3 -10 5 -4 10 5 9 2 0 -13 -7 -12 -16 -19 -19 -17 -5 3 -9 -13 -12
-52 -1 -8 -5 -9 -13 -3 -7 6 -11 3 -11 -10 0 -10 5 -16 11 -13 5 4 1 -4 -10
-17 -11 -13 -14 -20 -6 -15 10 6 12 4 7 -4 -5 -7 -14 -10 -22 -7 -17 7 -19
-10 -1 -17 9 -4 8 -8 -3 -16 -8 -6 -11 -11 -6 -11 6 0 1 -7 -10 -16 -10 -8
-12 -12 -4 -8 13 7 13 5 2 -9 -8 -9 -10 -22 -6 -28 4 -8 3 -9 -4 -5 -7 4 -12
1 -12 -8 0 -9 6 -16 13 -16 8 0 7 -3 -3 -9 -8 -6 -17 -8 -21 -5 -5 2 -6 -5 -4
-18 3 -12 -1 -26 -8 -30 -7 -5 -8 -8 -1 -8 15 0 11 -38 -6 -53 -12 -10 -12 -9
-2 5 9 11 10 18 2 23 -6 4 -10 3 -9 -2 1 -4 0 -10 -1 -13 -1 -3 -3 -23 -4 -45
-1 -23 -6 -47 -11 -55 -15 -24 -17 -52 -3 -45 7 4 4 -1 -6 -9 -15 -12 -16 -16
-5 -16 12 0 12 -2 -1 -10 -13 -9 -13 -10 0 -10 9 0 11 -3 5 -8 -5 -4 -10 -20
-10 -37 0 -16 5 -33 10 -37 6 -5 6 -8 -1 -8 -8 0 -10 -13 -7 -36 3 -25 1 -34
-6 -30 -7 4 -9 1 -5 -8 3 -9 11 -13 18 -10 6 3 3 -1 -6 -8 -15 -13 -15 -15 0
-26 9 -7 12 -10 5 -7 -13 6 -12 -32 2 -54 6 -10 4 -12 -5 -6 -10 6 -12 4 -7
-7 3 -9 0 -21 -6 -28 -7 -8 -8 -11 -1 -7 7 4 11 -5 12 -24 0 -20 -3 -27 -11
-23 -8 5 -8 3 0 -7 17 -17 17 -49 1 -50 -7 0 -4 -4 7 -9 11 -5 15 -9 9 -9 -7
-1 -15 -8 -18 -17 -3 -8 -2 -12 4 -9 6 3 10 -1 10 -10 0 -10 -5 -14 -12 -9
-10 6 -10 4 0 -7 7 -7 12 -39 12 -72 0 -41 3 -56 12 -51 7 4 8 3 4 -4 -4 -7
-9 -21 -11 -33 -3 -16 -1 -18 9 -10 10 8 12 3 10 -25 -2 -23 0 -32 8 -28 7 5
8 3 4 -5 -5 -7 0 -22 11 -34 13 -16 14 -18 1 -9 -12 10 -18 10 -24 1 -4 -8 -3
-9 4 -5 7 4 13 1 14 -6 2 -23 5 -32 13 -50 4 -10 4 -25 1 -33 -3 -9 1 -18 9
-21 8 -4 15 -16 15 -28 0 -12 4 -26 9 -31 5 -6 11 -23 13 -40 2 -17 8 -29 15
-28 7 2 12 0 11 -5 -5 -20 15 -72 25 -66 9 5 9 4 0 -6 -15 -16 -6 -40 16 -40
14 0 14 -2 1 -10 -13 -8 -13 -10 2 -10 11 0 15 -6 11 -20 -4 -13 0 -20 10 -20
8 0 21 -8 28 -17 13 -17 13 -17 -5 -3 -18 13 -19 13 -11 0 5 -8 19 -23 32 -33
13 -10 21 -22 18 -27 -3 -5 1 -12 9 -17 14 -8 16 -12 16 -34 0 -5 3 -8 8 -6 4
3 16 -5 27 -16 11 -11 13 -16 5 -12 -8 4 -5 -2 8 -14 12 -12 20 -27 16 -32 -3
-5 -2 -9 3 -8 29 5 42 -3 38 -22 -4 -17 -2 -19 11 -8 12 10 13 9 8 -6 -5 -13
-4 -16 4 -11 8 5 12 -1 13 -16 0 -13 3 -17 6 -10 3 9 10 7 24 -9 10 -12 16
-27 12 -33 -4 -6 1 -5 10 3 15 12 17 12 11 -3 -4 -9 -3 -16 2 -14 5 2 9 1 9
-2 0 -7 64 -70 71 -70 3 0 2 5 -2 12 -4 7 -3 8 4 4 6 -4 9 -13 5 -21 -4 -11
-1 -13 11 -9 11 4 16 1 16 -11 0 -9 5 -13 10 -10 6 3 10 -1 10 -9 0 -9 9 -16
21 -16 11 0 17 -4 14 -10 -3 -5 1 -10 9 -10 9 0 16 -4 16 -10 0 -5 7 -10 15
-10 14 0 20 -12 16 -33 -1 -5 3 -5 9 -2 6 4 18 -1 26 -11 13 -18 14 -18 8 1
-4 14 0 11 14 -8 11 -16 22 -28 26 -28 20 3 26 0 20 -11 -5 -7 -2 -9 8 -6 8 4
20 -2 27 -14 7 -11 18 -17 27 -14 8 3 13 2 11 -2 -3 -4 7 -16 22 -27 21 -15
23 -16 12 -2 -12 15 -12 17 2 11 8 -3 18 -12 21 -21 4 -8 13 -13 21 -9 9 3 15
0 15 -9 0 -8 9 -15 20 -15 11 0 20 -4 20 -9 0 -5 7 -12 16 -15 15 -6 15 -4 3
11 -13 17 -13 17 7 0 11 -9 24 -14 29 -10 4 5 4 2 0 -6 -6 -11 -4 -13 8 -8 12
4 17 1 17 -11 0 -15 2 -15 10 -2 8 13 10 13 10 -2 0 -11 6 -15 20 -11 12 3 20
0 20 -6 0 -7 -5 -9 -12 -5 -7 4 -8 3 -4 -4 4 -6 14 -8 22 -5 9 3 20 0 25 -8 6
-10 9 -10 9 -1 0 6 5 12 11 12 5 0 7 -4 4 -10 -3 -5 1 -10 10 -10 9 0 14 -3
12 -7 -3 -5 6 -9 19 -9 14 -1 21 2 17 9 -3 6 -1 7 5 3 6 -4 9 -13 5 -21 -3 -8
0 -15 5 -15 6 0 13 8 15 18 4 15 5 15 6 -2 1 -14 7 -17 26 -14 14 3 23 1 22
-6 -1 -6 11 -13 28 -14 16 -2 35 -11 42 -20 11 -14 12 -15 8 -1 -4 10 0 16 9
16 8 0 12 -5 9 -10 -4 -6 0 -8 10 -4 10 3 17 2 17 -2 0 -5 9 -7 20 -4 11 3 20
1 20 -5 0 -5 18 -8 40 -7 29 2 40 -1 40 -11 0 -8 5 -14 11 -14 5 0 7 6 3 12
-6 11 -4 11 7 0 7 -6 32 -12 56 -12 25 0 43 -5 43 -11 0 -8 6 -7 17 2 15 12
16 12 10 -4 -6 -15 -4 -16 13 -7 15 8 20 8 20 -2 0 -9 3 -9 10 2 5 8 10 10 10
5 0 -7 25 -10 63 -9 34 1 68 -4 76 -10 11 -8 13 -8 8 0 -4 7 2 11 18 11 14 0
22 -4 18 -10 -4 -6 -1 -7 8 -1 8 5 21 9 29 9 8 0 20 4 27 8 6 4 14 4 17 -1 5
-9 130 -7 146 3 5 3 10 1 10 -5 0 -7 7 -5 16 4 20 20 30 21 14 1 -16 -20 -6
-19 14 1 9 8 16 11 16 5 0 -6 5 -11 11 -11 5 0 7 5 4 10 -9 14 8 12 24 -2 11
-10 13 -10 7 -1 -5 9 4 13 31 14 21 1 44 1 51 0 6 -1 12 4 12 11 0 9 3 9 12 0
15 -15 28 -15 28 -1 0 5 -4 8 -8 5 -5 -3 -9 1 -9 9 0 8 5 11 11 7 19 -11 36
-11 36 1 0 8 3 8 8 2 10 -15 35 -18 26 -4 -5 9 0 10 15 6 18 -4 21 -2 17 10
-5 13 -4 14 9 3 12 -10 15 -10 15 0 0 10 3 10 15 0 12 -10 16 -9 21 3 3 9 14
13 27 10 18 -4 19 -3 7 6 -12 9 -10 11 11 11 15 0 32 6 38 14 6 7 22 12 36 10
14 -1 23 2 19 7 -3 5 1 9 9 9 8 0 17 6 20 14 3 8 16 12 32 11 19 -3 25 0 21
11 -6 15 15 15 26 -1 5 -6 8 -6 8 2 0 7 11 9 31 6 20 -3 35 0 40 9 6 9 9 10 9
1 0 -7 7 -10 15 -7 8 4 15 13 15 21 0 8 4 12 10 8 5 -3 6 -13 3 -22 -5 -13 -1
-12 17 5 16 15 26 18 31 11 5 -8 9 -8 14 1 4 6 13 9 21 6 9 -3 14 1 14 11 0
14 2 14 16 -3 8 -10 13 -13 9 -7 -9 18 4 36 18 25 16 -12 42 -8 40 5 -1 6 4
14 13 17 8 3 12 2 9 -4 -3 -6 -1 -10 4 -10 6 0 11 4 11 9 0 5 9 7 20 4 12 -3
20 0 20 6 0 7 5 9 12 5 7 -5 9 -2 5 8 -3 9 -1 20 4 25 7 7 5 12 -5 16 -9 4
-15 3 -15 -1 3 -19 -2 -25 -11 -12 -6 10 -10 11 -10 3 0 -7 -7 -13 -16 -13 -9
0 -12 -5 -8 -12 6 -10 5 -10 -7 -1 -9 7 -20 8 -29 3 -8 -5 -18 -6 -24 -3 -5 3
-6 1 -2 -6 4 -6 12 -8 18 -5 6 4 8 3 5 -3 -4 -6 -23 -9 -44 -8 -21 1 -44 -2
-50 -8 -7 -5 -13 -6 -13 -2 0 4 -7 1 -16 -6 -27 -22 -42 -18 -46 12 -3 15 0
26 4 23 5 -3 15 0 23 6 8 6 20 8 27 4 7 -4 10 -4 6 0 -10 11 31 48 44 40 7 -5
8 -3 3 6 -6 10 -4 12 10 6 16 -6 16 -4 4 11 -7 10 -9 15 -4 10 4 -4 20 3 34
15 23 20 24 21 11 3 -12 -17 -11 -17 6 1 12 13 25 20 30 16 4 -4 4 1 0 12 -4
13 -2 17 8 13 10 -4 13 -1 9 9 -3 9 0 12 9 9 9 -4 19 3 27 17 6 13 9 15 6 5
-3 -10 -1 -15 5 -12 6 3 10 13 10 21 0 9 5 12 12 8 8 -5 9 -2 5 10 -4 11 -3
15 4 10 6 -3 19 3 30 15 11 12 24 21 30 21 6 0 7 5 3 12 -5 7 -2 9 9 5 12 -4
14 -2 10 10 -4 10 -2 14 4 10 6 -4 14 0 17 9 4 10 12 14 22 10 14 -5 15 -4 4
9 -10 12 -10 15 4 15 10 0 14 4 11 10 -4 6 1 7 11 3 13 -5 15 -3 9 7 -6 10 -4
12 8 7 11 -4 14 -2 10 8 -3 9 4 18 20 24 13 5 27 17 31 26 3 9 11 13 17 9 8
-4 9 -3 5 4 -4 7 -2 12 4 12 6 0 8 5 4 12 -5 8 -2 9 10 5 13 -5 17 -3 13 7 -7
16 19 30 36 19 8 -4 7 -1 -1 9 -10 13 -10 17 3 22 8 3 15 12 15 20 0 8 13 25
29 39 22 18 27 27 18 36 -8 8 -4 9 12 6 19 -4 21 -2 10 11 -10 12 -9 13 7 8
10 -4 16 -4 12 1 -4 4 0 14 10 22 9 8 11 11 4 8 -11 -6 -11 -3 -1 13 7 12 16
19 20 16 4 -2 10 3 13 12 3 8 2 13 -2 10 -5 -3 -9 1 -9 8 0 8 6 12 13 9 6 -2
15 1 20 8 4 7 3 10 -4 6 -6 -5 -8 0 -5 13 3 11 10 20 15 20 5 0 6 6 2 13 -6 8
-3 8 9 -1 14 -12 16 -11 12 8 -2 12 2 23 10 27 8 3 15 9 15 15 0 5 -5 6 -11 3
-6 -4 -5 2 3 14 7 12 17 21 23 21 5 0 3 5 -5 10 -12 7 -12 10 -1 10 8 0 11 6
7 16 -3 8 -2 12 4 9 6 -3 10 3 10 14 0 12 5 21 11 21 5 0 7 -5 3 -12 -4 -7 -3
-8 5 -4 9 6 9 11 1 21 -9 10 -7 16 7 23 11 7 20 23 21 44 1 18 10 39 19 45 9
7 13 13 9 13 -5 0 -2 8 5 17 12 15 12 16 -1 8 -8 -5 -3 4 12 19 22 22 25 32
18 47 -9 15 -7 17 11 14 17 -4 19 -2 9 10 -10 12 -10 15 1 15 11 0 11 2 -1 10
-8 5 -10 10 -4 10 6 0 10 13 9 30 -1 16 2 27 7 24 5 -4 7 -13 4 -21 -3 -8 -2
-12 3 -8 5 3 8 23 6 45 -2 23 1 40 7 40 6 0 7 5 2 13 -5 6 -9 19 -8 27 1 8 2
21 3 28 0 7 5 10 11 7 7 -4 7 2 0 19 -7 20 -6 27 8 35 14 8 14 10 2 11 -13 0
-13 1 0 10 12 8 12 10 1 10 -11 0 -11 3 0 17 10 11 10 14 2 9 -16 -9 -17 6 -1
22 9 9 9 12 0 12 -7 0 -12 5 -12 11 0 5 4 8 8 5 10 -6 9 95 -2 112 -4 7 -2 12
6 12 8 0 9 3 3 8 -15 11 -17 32 -3 32 9 0 8 4 -2 10 -12 8 -12 10 -1 10 11 0
11 3 0 17 -12 15 -12 16 1 8 13 -7 13 -6 2 7 -10 13 -10 17 0 21 10 4 10 6 -1
6 -11 1 -11 4 -1 16 6 8 8 20 4 27 -12 19 -14 38 -4 38 5 0 7 9 5 20 -2 11 1
19 8 17 6 -1 11 5 12 13 1 27 16 60 25 55 4 -3 11 2 14 11 9 24 7 31 -5 14 -8
-11 -9 -9 -3 10 4 14 14 30 22 36 9 7 13 19 9 33 -4 17 -2 20 7 12 9 -7 12 -3
14 16 1 15 10 36 20 47 12 15 13 18 1 8 -13 -9 -16 -9 -16 3 0 8 6 15 14 15 7
0 12 3 12 8 -1 4 0 12 1 17 1 6 3 15 5 20 1 6 3 18 3 28 1 10 6 16 10 13 5 -3
9 1 9 9 0 8 -5 11 -11 8 -7 -5 -7 -2 0 8 6 8 11 26 10 41 -1 14 2 24 6 22 3
-2 9 0 13 6 3 5 0 10 -7 10 -10 0 -10 2 -1 8 7 5 14 32 15 60 2 29 6 52 10 52
5 0 8 5 8 11 0 5 -4 8 -9 5 -5 -3 -8 5 -7 19 0 14 5 25 10 25 5 0 3 6 -3 14
-8 10 -9 16 -1 21 6 3 8 11 5 16 -4 5 -1 9 4 9 6 0 11 -4 11 -8 0 -5 7 -9 15
-9 18 0 19 9 3 25 -9 9 -8 12 5 12 16 0 16 2 1 25 -12 18 -13 25 -3 25 7 0 9
3 6 6 -4 4 -13 1 -21 -5 -11 -10 -14 -9 -12 1 1 7 5 18 9 25 4 7 0 16 -10 22
-13 8 -14 10 -4 11 11 0 9 4 -5 15 -16 13 -16 14 -1 9 13 -5 16 -2 11 9 -3 8
-1 18 5 21 6 4 7 15 2 29 -10 27 -3 50 12 40 7 -4 6 1 -2 10 -7 9 -10 17 -6
17 4 0 2 6 -4 14 -9 11 -9 16 0 22 8 5 9 3 4 -6 -6 -9 -4 -11 4 -5 9 5 9 11 3
17 -6 6 -8 16 -6 23 3 7 0 16 -6 20 -8 5 -6 12 5 25 12 14 13 20 4 26 -8 5
-10 3 -4 -6 5 -9 4 -11 -4 -6 -6 4 -8 13 -4 19 10 16 11 47 2 47 -4 0 -3 15 2
32 11 41 11 41 -1 33 -5 -3 -10 3 -10 14 0 11 -5 23 -10 26 -8 5 -8 11 0 20 8
10 8 15 0 20 -7 4 -10 16 -7 26 3 11 0 19 -5 19 -6 0 -5 6 2 15 11 13 10 14
-2 10 -9 -4 -18 1 -22 10 -3 9 -2 13 3 10 5 -3 12 -1 16 5 3 5 0 10 -8 10 -10
0 -13 7 -10 20 3 11 1 20 -5 20 -5 0 -12 7 -15 14 -4 11 -1 13 11 10 9 -3 6 1
-7 9 -18 11 -20 16 -10 20 10 4 10 6 2 6 -7 1 -13 7 -13 15 0 8 -4 16 -9 18
-5 2 -11 10 -13 18 -2 8 -10 21 -18 28 -8 8 -9 11 -3 7 21 -10 2 27 -26 54
-14 13 -19 20 -11 16 9 -4 9 -1 -2 8 -10 8 -18 24 -18 37 0 18 -3 20 -14 11
-12 -10 -14 -9 -12 6 3 19 -15 44 -26 36 -4 -2 -5 3 -2 11 3 9 -3 19 -16 26
-12 6 -20 17 -17 23 6 15 -18 38 -29 29 -4 -4 -4 1 -1 11 5 12 1 20 -11 24 -9
4 -22 13 -28 21 -6 8 -16 12 -21 9 -6 -4 -9 4 -7 18 2 22 0 23 -17 14 -11 -5
-19 -6 -18 -2 3 20 -2 34 -11 28 -5 -3 -10 0 -10 7 0 10 -3 9 -11 -2 -9 -12
-10 -11 -6 8 3 12 1 19 -4 16 -5 -3 -12 2 -15 11 -5 12 -9 13 -20 4 -12 -10
-13 -9 -8 5 4 11 2 15 -8 11 -8 -3 -21 2 -29 12 -12 16 -12 17 1 8 9 -5 6 -1
-6 10 -12 11 -24 27 -27 35 -3 9 -6 6 -7 -10 l-2 -25 -11 25 c-7 14 -19 26
-27 28 -8 2 -21 11 -28 20 -7 9 -15 16 -17 15 -15 -8 -35 -2 -29 9 5 8 2 9 -9
5 -13 -5 -17 -1 -17 16 0 18 -2 19 -10 7 -7 -12 -10 -12 -10 -1 0 8 -6 11 -17
7 -10 -4 -14 -4 -11 0 8 8 -16 34 -32 34 -6 0 -9 4 -6 9 4 5 -3 7 -14 4 -15
-4 -20 0 -21 13 0 11 -3 13 -6 7 -3 -10 -8 -9 -20 3 -9 8 -23 12 -31 9 -9 -3
-13 -3 -10 1 4 3 1 13 -7 20 -17 17 -29 18 -19 2 4 -7 -4 -1 -19 15 -14 15
-32 27 -39 27 -9 0 -9 -3 2 -10 9 -6 10 -10 3 -10 -6 0 -15 5 -18 10 -4 6 -10
8 -15 5 -5 -3 -12 0 -16 6 -4 8 -3 9 4 5 18 -11 14 0 -5 15 -9 8 -14 9 -10 3
4 -8 -2 -11 -17 -10 -13 0 -22 5 -18 10 3 5 -5 7 -17 3 -18 -4 -20 -3 -11 8 9
10 5 13 -20 11 -16 -1 -30 2 -30 7 0 5 -6 4 -14 -2 -11 -9 -16 -9 -22 0 -4 8
-3 9 4 5 7 -4 12 -2 12 3 0 10 -30 16 -54 12 -4 -1 -15 4 -24 11 -10 9 -13 9
-9 1 4 -6 2 -15 -4 -19 -8 -4 -9 -3 -5 4 4 7 2 12 -4 12 -6 0 -8 5 -4 11 4 8
-1 9 -16 4 -15 -5 -20 -4 -16 4 5 8 0 8 -18 1 -17 -6 -26 -6 -26 0 0 5 -10 9
-22 7 -18 -1 -23 3 -22 20 0 15 -7 23 -22 26 -14 2 -21 0 -17 -6 4 -6 1 -7 -8
-2 -20 13 -49 13 -49 1 0 -6 -7 -3 -14 7 -14 18 -32 24 -21 7 4 -7 -3 -7 -19
0 -21 8 -26 7 -26 -7 0 -9 -3 -13 -7 -10 -3 4 -11 3 -17 -2 -7 -6 -17 -3 -26
7 -13 14 -12 15 3 9 9 -3 17 -2 17 3 0 9 -38 15 -62 11 -5 0 -8 4 -8 10 0 5
-5 7 -10 4 -6 -4 -8 -10 -5 -15 3 -5 0 -12 -6 -16 -7 -4 -9 -3 -6 2 3 6 -3 15
-13 22 -13 8 -21 8 -25 1 -5 -7 -11 -6 -20 1 -11 9 -12 6 -8 -12z m-52 -56
c-3 -3 -11 0 -18 7 -9 10 -8 11 6 5 10 -3 15 -9 12 -12z m405 8 c0 -5 -2 -10
-4 -10 -3 0 -8 5 -11 10 -3 6 -1 10 4 10 6 0 11 -4 11 -10z m-720 -54 c0 -3
-4 -8 -10 -11 -5 -3 -10 -1 -10 4 0 6 5 11 10 11 6 0 10 -2 10 -4z m1664 -404
c3 -5 -1 -9 -9 -9 -8 0 -12 4 -9 9 3 4 7 8 9 8 2 0 6 -4 9 -8z m-2689 -402 c3
-5 -3 -10 -15 -10 -12 0 -18 5 -15 10 3 6 10 10 15 10 5 0 12 -4 15 -10z m-9
-79 c-4 -5 -3 -11 1 -14 5 -2 2 -2 -6 0 -8 2 -11 -2 -7 -13 4 -10 -5 -27 -24
-46 -17 -16 -30 -34 -30 -39 0 -5 -7 -9 -15 -9 -9 0 -12 -6 -9 -15 4 -8 1 -15
-7 -15 -7 0 -9 -3 -6 -7 4 -3 -2 -13 -14 -21 -16 -11 -17 -17 -8 -28 7 -9 8
-14 1 -14 -6 0 -9 -9 -7 -19 2 -14 -1 -18 -10 -15 -10 4 -13 0 -10 -15 2 -12
0 -21 -6 -21 -5 0 -9 -9 -9 -21 0 -15 -5 -19 -15 -15 -9 3 -20 -3 -27 -14 -16
-25 -29 -26 -22 -2 4 9 -2 6 -12 -8 -11 -15 -28 -25 -41 -24 -14 1 -20 -3 -16
-13 3 -8 2 -13 -3 -12 -22 4 -34 -2 -34 -18 0 -15 -2 -16 -10 -3 -7 12 -11 10
-19 -10 -5 -14 -10 -18 -11 -10 0 12 -2 12 -11 -2 -6 -11 -16 -15 -26 -11 -12
5 -15 2 -10 -10 6 -15 3 -16 -13 -7 -11 6 -20 13 -20 16 0 3 5 2 12 -2 8 -5 9
-2 5 10 -4 10 -3 15 3 11 9 -6 15 8 11 29 -1 5 6 6 15 2 14 -6 15 -4 4 9 -11
13 -11 16 1 13 8 -2 13 3 11 11 -2 8 3 11 12 8 10 -4 14 0 11 13 -2 11 1 19 8
17 7 -1 11 6 11 15 -1 10 4 14 12 11 17 -6 19 13 2 21 -8 3 -7 5 2 3 16 -2 67
43 63 56 -2 4 2 7 8 7 5 0 8 3 6 8 -2 4 4 15 15 25 20 19 25 9 6 -13 -11 -12
-10 -12 5 -1 9 7 17 20 17 27 0 8 12 19 26 24 14 6 22 15 19 20 -4 6 -2 9 3 8
5 -2 18 6 28 17 11 12 16 16 12 10 -9 -14 27 -13 39 0 5 4 2 5 -4 1 -14 -8
-17 3 -7 28 3 9 11 13 17 9 6 -4 8 0 4 9 -4 12 0 15 16 11 17 -4 19 -3 7 6 -8
5 -11 13 -7 17 3 4 15 1 24 -7 10 -7 15 -10 11 -5 -4 4 -1 14 5 22 13 15 31
19 23 5z m-431 -381 c3 -5 1 -10 -4 -10 -6 0 -11 5 -11 10 0 6 2 10 4 10 3 0
8 -4 11 -10z m2312 -3143 c1 -11 1 -18 0 -16 -2 2 -8 11 -15 20 -9 12 -9 16 1
16 7 0 14 -9 14 -20z m73 -7 c0 -5 -5 -10 -11 -10 -5 0 -7 5 -4 10 3 6 8 10
11 10 2 0 4 -4 4 -10z"/>
<path d="M4070 6759 c0 -5 5 -7 10 -4 6 3 10 8 10 11 0 2 -4 4 -10 4 -5 0 -10
-5 -10 -11z"/>
<path d="M3060 6649 c0 -5 5 -7 10 -4 6 3 10 8 10 11 0 2 -4 4 -10 4 -5 0 -10
-5 -10 -11z"/>
<path d="M2630 6379 c0 -5 5 -7 10 -4 6 3 10 8 10 11 0 2 -4 4 -10 4 -5 0 -10
-5 -10 -11z"/>
<path d="M5492 4952 c-2 -32 1 -43 7 -32 5 8 8 17 5 21 -2 4 0 10 5 13 10 6 3
46 -8 46 -3 0 -7 -21 -9 -48z"/>
<path d="M5446 4961 c-3 -5 1 -11 9 -14 9 -4 12 -1 8 9 -6 16 -10 17 -17 5z"/>
<path d="M5510 4918 c0 -4 4 -8 9 -8 12 0 8 -43 -4 -52 -6 -5 -5 -8 3 -8 7 0
10 -4 7 -10 -3 -5 -1 -10 5 -10 6 0 8 -5 4 -12 -5 -7 -3 -8 5 -3 15 9 11 -36
-4 -47 -6 -5 -3 -8 7 -8 9 0 20 -4 23 -10 3 -6 -1 -7 -9 -4 -9 3 -16 1 -16 -5
0 -6 6 -10 13 -8 7 1 12 -7 11 -20 0 -12 4 -19 9 -16 6 4 8 -1 4 -10 -4 -10
-2 -17 5 -17 7 0 6 -6 -2 -16 -8 -8 -9 -14 -4 -12 5 2 9 -1 9 -7 0 -5 -4 -9
-8 -7 -5 1 -6 -2 -2 -8 3 -6 10 -8 15 -5 5 3 12 0 16 -6 3 -6 0 -15 -7 -20
-12 -7 -12 -9 1 -9 10 0 11 -3 3 -11 -9 -9 -9 -16 0 -30 9 -15 9 -24 -2 -41
-10 -18 -11 -20 0 -10 18 17 27 15 25 -4 0 -9 6 -19 14 -21 13 -4 13 -3 0 6
-12 9 -13 13 -2 20 11 6 10 10 -3 15 -10 3 -15 12 -11 21 3 8 1 15 -5 15 -6 0
-7 5 -4 10 4 6 12 7 18 3 7 -3 5 2 -3 13 -17 21 -19 42 -6 63 5 8 5 12 0 9 -5
-3 -15 0 -22 8 -10 11 -10 14 0 14 9 0 9 3 -2 10 -13 9 -13 10 0 10 10 0 11 3
4 8 -6 4 -12 15 -12 25 -4 41 -6 46 -15 40 -6 -4 -8 2 -5 15 4 15 2 19 -8 15
-10 -4 -12 0 -8 11 3 9 11 13 18 10 6 -3 1 3 -11 13 -17 14 -21 26 -18 56 2
21 0 37 -6 37 -6 0 -8 4 -5 8 3 5 -1 9 -9 9 -8 0 -15 -4 -15 -9z"/>
<path d="M5555 4840 c-3 -5 -1 -10 4 -10 6 0 11 5 11 10 0 6 -2 10 -4 10 -3 0
-8 -4 -11 -10z"/>
<path d="M5616 4434 c-3 -8 -2 -13 3 -10 5 3 12 -1 15 -10 3 -8 2 -13 -2 -10
-4 2 -7 -33 -7 -79 0 -59 3 -81 12 -78 14 6 13 43 -2 43 -5 0 -3 5 5 10 13 9
13 11 0 20 -13 8 -12 10 4 10 13 0 16 4 9 13 -5 6 -8 33 -8 60 1 47 -16 66
-29 31z"/>
<path d="M5639 4238 c-1 -2 -3 -13 -4 -25 -3 -26 10 -31 19 -7 4 10 2 13 -6 8
-8 -5 -9 -2 -5 9 5 13 1 25 -4 15z"/>
<path d="M5629 4162 c5 -8 6 -23 4 -33 -3 -11 -1 -19 5 -19 5 0 9 15 8 33 0
19 -6 34 -13 34 -8 0 -9 -6 -4 -15z"/>
<path d="M5631 4078 c-1 -16 4 -28 11 -28 6 0 8 3 5 7 -4 3 -1 13 6 21 8 11 8
14 0 9 -6 -4 -14 -1 -16 5 -3 7 -6 1 -6 -14z"/>
<path d="M5629 3969 c-1 -8 -1 -18 0 -23 3 -16 -11 -46 -19 -41 -4 3 -6 -4 -3
-15 3 -13 0 -20 -8 -20 -11 0 -11 -2 1 -10 8 -5 10 -10 3 -10 -12 0 -12 -24 0
-36 11 -11 8 -26 -3 -19 -6 4 -7 -1 -3 -11 4 -12 3 -15 -5 -10 -8 5 -10 2 -6
-9 5 -11 2 -14 -12 -9 -11 3 -15 2 -9 -3 14 -11 17 -33 5 -33 -7 0 -8 -6 -1
-17 6 -12 5 -21 -7 -31 -10 -7 -11 -11 -4 -7 20 10 14 -13 -10 -36 -13 -12
-17 -18 -9 -14 11 6 13 4 7 -11 -4 -10 -9 -25 -10 -32 -1 -8 -9 -18 -17 -23
-11 -7 -11 -9 0 -9 11 0 11 -3 0 -17 -10 -11 -10 -14 -1 -9 16 9 16 -6 0 -22
-10 -10 -10 -15 1 -21 11 -7 9 -10 -9 -16 -16 -5 -21 -13 -18 -30 4 -17 1 -22
-9 -18 -9 4 -11 0 -7 -11 8 -20 6 -20 32 3 23 20 30 37 10 25 -7 -4 -2 6 10
23 12 17 19 33 15 36 -3 4 -1 13 6 21 9 11 8 17 -4 29 -9 10 -11 18 -5 22 5 3
10 3 10 -1 0 -4 6 1 14 11 16 22 11 39 -7 29 -7 -3 -5 0 3 8 9 7 14 22 12 33
-2 15 -1 16 6 7 7 -11 10 -9 15 7 3 12 1 19 -4 15 -5 -3 -9 0 -9 5 0 6 5 11
11 11 5 0 7 5 3 11 -3 6 0 16 7 21 10 7 9 8 -6 4 -20 -6 -20 -6 -1 9 14 11 16
15 5 15 -12 0 -12 2 1 10 8 5 15 24 16 42 3 57 4 59 13 53 5 -3 13 0 17 6 4 8
3 9 -4 5 -7 -4 -12 -3 -12 3 0 5 5 11 10 13 12 4 14 27 7 71 -5 31 -16 48 -18
26z"/>
<path d="M5226 3738 c3 -5 10 -6 15 -3 13 9 11 12 -6 12 -8 0 -12 -4 -9 -9z"/>
<path d="M5456 3375 c-3 -9 -2 -13 4 -10 6 3 10 2 10 -3 0 -17 -13 -22 -28 -9
-13 10 -14 9 -7 -3 13 -20 13 -32 1 -48 -7 -10 -6 -16 4 -22 16 -10 38 -1 23
9 -14 9 -12 39 3 45 8 3 11 -2 9 -15 -2 -11 0 -17 5 -14 4 3 7 16 5 30 -1 15
4 30 14 36 15 10 15 10 0 6 -9 -3 -21 -1 -26 4 -7 7 -12 5 -17 -6z"/>
<path d="M5416 3274 c1 -7 -8 -22 -21 -34 -13 -12 -21 -29 -18 -36 3 -8 2 -14
-3 -12 -5 2 -9 -1 -9 -7 0 -5 5 -8 10 -7 6 2 6 0 2 -5 -5 -4 -14 -8 -20 -8 -7
0 -11 -8 -11 -18 1 -9 -3 -17 -10 -17 -11 0 -40 -37 -41 -53 0 -4 -6 -11 -13
-16 -8 -5 -14 -12 -15 -17 -1 -5 -5 -8 -8 -7 -4 1 -5 -7 -2 -17 4 -16 2 -19
-11 -14 -21 8 -20 -5 2 -22 15 -12 15 -12 -5 -7 -21 5 -25 0 -22 -23 0 -4 -5
-11 -13 -15 -9 -6 -7 -9 8 -9 28 0 36 10 22 27 -10 12 -8 14 8 11 13 -2 19 2
18 15 -1 9 5 17 15 18 10 0 11 2 4 6 -21 8 -15 22 7 18 17 -3 19 -1 9 17 -10
18 -8 19 13 14 12 -3 17 -3 10 0 -9 4 -5 13 15 31 15 14 22 22 14 18 -9 -5
-12 -3 -9 6 3 8 11 13 18 11 10 -2 10 1 -1 14 -12 16 -12 17 4 11 11 -4 17 -1
17 9 0 9 5 12 12 8 6 -4 8 -3 4 4 -3 6 -2 13 4 17 6 4 8 11 5 16 -5 8 7 13 26
11 3 -1 5 9 5 21 -1 13 4 21 12 19 8 -1 11 2 7 8 -3 5 -12 10 -20 10 -7 0 -15
3 -18 8 -2 4 -3 2 -1 -4z m-2 -38 c-3 -8 -13 -17 -22 -21 -13 -5 -13 -2 3 15
21 24 26 25 19 6z m-84 -135 c0 -5 -7 -12 -16 -15 -14 -5 -15 -4 -4 9 14 17
20 19 20 6z"/>
<path d="M1419 2947 c6 -8 7 -18 3 -22 -4 -5 -1 -5 6 -1 10 6 10 11 1 22 -6 8
-14 14 -16 14 -3 0 0 -6 6 -13z"/>
<path d="M5189 2907 c-1 -7 -1 -18 0 -24 2 -16 -16 -17 -21 -1 -3 9 -6 9 -12
0 -4 -7 -3 -12 2 -12 6 0 8 -9 5 -19 -3 -13 -11 -18 -21 -14 -15 4 -15 3 -2
-6 13 -9 13 -11 0 -12 -8 -1 -18 -1 -23 0 -4 1 -6 -12 -5 -28 2 -29 18 -34 18
-5 0 7 9 19 20 26 11 7 20 19 20 26 0 8 5 10 13 6 6 -4 9 -4 5 1 -4 4 6 21 22
37 16 15 26 28 22 29 -4 0 -15 2 -24 4 -10 2 -19 -2 -19 -8z m26 -7 c-3 -5
-12 -10 -18 -10 -7 0 -6 4 3 10 19 12 23 12 15 0z"/>
<path d="M4840 2895 c-19 -22 -8 -25 13 -3 9 10 13 18 8 18 -5 0 -14 -7 -21
-15z"/>
<path d="M5077 2784 c-4 -4 -2 -13 5 -21 9 -11 8 -13 -3 -11 -8 2 -18 8 -22
13 -5 6 -7 3 -3 -7 3 -12 0 -18 -10 -18 -9 0 -14 -6 -11 -13 3 -8 1 -20 -5
-28 -8 -11 -9 -10 -4 4 3 9 1 17 -4 17 -6 0 -10 -8 -10 -17 0 -15 -2 -16 -10
-3 -8 13 -10 12 -10 -4 0 -12 -5 -16 -15 -12 -8 3 -14 0 -12 -6 1 -7 -3 -12
-8 -13 -6 0 -23 -10 -39 -22 -22 -18 -26 -25 -17 -40 7 -12 10 -13 11 -4 0 8
6 11 16 7 8 -3 12 -2 9 4 -6 9 8 14 28 11 4 0 6 5 5 12 -2 6 3 11 10 10 6 -2
11 0 11 5 -3 18 2 32 12 32 5 0 7 -5 3 -12 -4 -6 4 -3 18 8 15 10 26 21 26 24
0 3 0 12 1 20 1 13 3 13 12 0 9 -12 10 -12 5 4 -5 14 -2 17 12 14 10 -3 19 0
19 6 0 6 2 17 4 25 4 15 -13 26 -24 15z m-112 -134 c-10 -11 -20 -18 -23 -15
-3 3 -15 -3 -26 -12 -16 -13 -15 -11 3 9 13 15 27 25 32 23 4 -3 10 -1 14 5 3
5 9 10 12 10 3 0 -2 -9 -12 -20z"/>
<path d="M4844 2587 c3 -20 -1 -23 -22 -19 -19 4 -23 2 -17 -8 6 -10 4 -12 -8
-7 -9 3 -18 -1 -21 -10 -4 -8 -13 -13 -20 -10 -16 6 -40 -16 -29 -26 3 -4 2
-7 -3 -7 -6 0 -16 6 -23 13 -10 10 -11 8 -5 -7 5 -13 4 -17 -4 -12 -7 4 -12 2
-12 -3 0 -6 -7 -11 -15 -11 -8 0 -15 -7 -15 -15 0 -8 -5 -15 -11 -15 -5 0 -7
6 -4 13 4 6 0 4 -8 -5 -9 -12 -17 -14 -24 -7 -6 6 -10 5 -10 -6 0 -8 5 -15 10
-15 6 0 7 -3 4 -6 -4 -4 -13 -2 -20 4 -11 9 -19 6 -36 -14 -12 -13 -26 -22
-31 -19 -6 3 -10 3 -11 -2 -2 -23 -8 -46 -14 -51 -3 -4 -4 7 -1 23 l5 30 -19
-25 c-10 -13 -17 -28 -14 -31 7 -12 34 -3 49 17 10 13 14 15 15 5 0 -10 6 -7
19 7 20 24 37 30 25 10 -5 -9 -2 -9 9 1 19 15 23 26 5 15 -7 -4 -8 -3 -4 4 4
7 16 12 26 12 10 0 22 5 26 12 5 7 3 8 -6 3 -9 -5 -11 -4 -6 4 6 9 11 9 22 0
12 -10 14 -10 12 1 -2 7 3 15 11 18 9 3 11 0 6 -8 -5 -9 -4 -11 4 -6 9 6 9 11
-1 24 -7 9 -8 13 -2 9 7 -4 17 0 24 8 10 12 17 12 34 3 19 -10 20 -10 7 6 -13
15 -12 17 12 12 20 -3 25 -1 20 11 -5 12 -3 14 7 8 9 -6 11 -4 5 5 -6 10 -4
12 8 7 10 -3 17 -2 17 4 0 6 4 8 9 5 8 -5 30 15 46 43 6 10 4 12 -5 6 -8 -5
-11 -4 -6 3 3 6 2 13 -3 16 -5 4 -8 -4 -7 -17z m-90 -73 c3 -8 2 -12 -4 -9 -6
3 -10 10 -10 16 0 14 7 11 14 -7z"/>
<path d="M4873 2590 c1 -11 5 -20 9 -20 11 0 10 28 -1 35 -6 3 -9 -4 -8 -15z"/>
<path d="M4705 2470 c-3 -5 -1 -10 4 -10 6 0 11 5 11 10 0 6 -2 10 -4 10 -3 0
-8 -4 -11 -10z"/>
<path d="M3459 1563 c-1 -5 -1 -12 0 -17 1 -5 -6 -3 -15 5 -16 12 -17 12 -12
-2 4 -11 0 -15 -16 -15 -11 1 -24 6 -28 11 -5 6 -8 3 -8 -7 0 -11 -5 -15 -15
-12 -8 4 -15 1 -15 -5 0 -6 -7 -11 -16 -11 -9 0 -18 -9 -21 -21 -4 -16 -8 -17
-14 -7 -7 10 -9 9 -9 -4 0 -10 -5 -18 -11 -18 -5 0 -7 -4 -4 -10 3 -6 -1 -7
-9 -4 -12 4 -16 0 -16 -16 0 -15 -5 -20 -14 -17 -10 4 -12 0 -8 -16 5 -19 3
-20 -10 -9 -13 10 -15 9 -13 -13 2 -14 -1 -23 -6 -19 -5 3 -9 -2 -9 -11 0 -8
-9 -23 -20 -32 -11 -10 -20 -26 -20 -36 0 -10 -4 -15 -10 -12 -6 4 -7 -1 -3
-11 5 -12 3 -15 -6 -9 -10 5 -11 2 -7 -13 4 -12 2 -23 -5 -28 -8 -5 -9 -3 -4
6 5 9 4 11 -4 6 -9 -6 -9 -11 0 -22 10 -12 10 -14 0 -12 -12 3 -18 -11 -23
-54 -1 -10 -8 -18 -15 -18 -7 0 -13 -5 -13 -11 0 -5 4 -8 8 -5 4 2 8 -4 8 -14
0 -14 -3 -16 -13 -8 -10 8 -12 7 -7 -6 3 -9 1 -16 -5 -16 -6 0 -11 -5 -11 -11
0 -5 6 -7 13 -3 6 4 3 -3 -8 -16 -12 -14 -14 -20 -5 -15 13 8 13 6 2 -8 -8 -9
-11 -21 -7 -27 3 -5 0 -12 -7 -15 -8 -3 -14 -15 -15 -25 -1 -13 2 -18 10 -13
6 3 0 -9 -13 -27 -13 -18 -19 -30 -12 -26 7 4 12 1 12 -9 0 -9 -4 -14 -9 -11
-5 3 -12 -1 -15 -10 -3 -8 -2 -12 4 -9 6 3 10 1 10 -4 0 -6 -4 -11 -10 -11 -5
0 -8 -15 -6 -32 2 -18 -1 -39 -8 -47 -8 -11 -8 -13 2 -7 15 9 16 -6 0 -22 -9
-9 -9 -12 3 -12 12 0 12 -2 -1 -10 -9 -6 -11 -10 -3 -10 7 0 10 -7 7 -15 -4
-8 -11 -12 -18 -9 -6 3 -3 -1 7 -9 12 -10 15 -17 7 -22 -8 -5 -8 -11 -1 -19 7
-9 7 -16 0 -23 -8 -8 -7 -13 2 -18 8 -6 10 -4 4 5 -5 9 -4 11 4 6 9 -6 9 -11
0 -22 -6 -8 -8 -14 -3 -14 17 0 32 -47 20 -61 -8 -9 -8 -10 1 -5 14 8 22 -4
25 -37 1 -14 6 -23 10 -21 4 3 8 0 8 -6 0 -6 4 -8 10 -5 6 3 7 -1 4 -9 -3 -9
-1 -16 6 -16 6 0 8 -4 5 -10 -3 -5 1 -10 10 -10 10 0 13 -5 9 -12 -5 -9 -2 -8
9 1 15 12 17 12 12 -2 -4 -8 -1 -18 6 -23 8 -4 10 -3 5 4 -4 7 -3 12 2 12 6 0
12 -7 16 -15 3 -8 11 -14 18 -13 7 2 12 -2 11 -8 -1 -7 8 -9 24 -6 15 3 29 -1
34 -9 6 -10 9 -10 9 -1 0 6 5 12 11 12 5 0 7 -6 3 -12 -6 -10 -4 -10 7 -1 16
16 33 17 23 1 -4 -7 -3 -8 5 -4 6 4 9 12 6 17 -3 5 8 7 24 5 17 -2 28 1 25 5
-3 5 2 9 11 9 8 0 23 9 32 19 9 11 20 18 25 15 4 -3 8 3 9 13 0 10 3 13 6 6 2
-7 9 -13 14 -13 4 0 6 7 3 15 -5 11 -2 13 10 9 10 -4 18 0 22 10 3 9 10 14 14
11 14 -9 20 26 9 47 -10 19 -12 20 -21 5 -5 -10 -14 -17 -21 -17 -7 0 -6 4 3
10 10 7 11 10 2 10 -7 0 -15 -7 -18 -15 -4 -8 -11 -12 -18 -8 -6 4 -5 -1 2
-10 12 -14 11 -16 -7 -12 -14 3 -21 -1 -21 -12 0 -13 -2 -14 -17 -2 -14 12
-16 12 -8 0 6 -11 4 -13 -7 -8 -9 3 -23 -2 -33 -13 -10 -11 -22 -17 -26 -14
-5 3 -9 1 -9 -4 0 -6 -14 -7 -36 -2 -30 7 -35 6 -29 -8 5 -14 4 -14 -13 1 -10
9 -28 15 -39 12 -17 -3 -20 0 -16 12 4 11 2 14 -5 9 -7 -4 -12 -3 -12 2 0 5
-9 12 -20 15 -14 4 -18 10 -13 23 4 10 2 15 -3 11 -6 -3 -16 -2 -24 4 -13 7
-13 9 0 9 11 1 10 4 -4 15 -11 8 -14 15 -8 15 7 0 12 5 12 11 0 5 -4 8 -8 5
-4 -2 -14 4 -21 16 -7 11 -8 17 -2 13 6 -3 11 -1 11 4 0 6 -5 11 -11 11 -8 0
-7 5 1 15 10 13 10 19 -5 35 -10 11 -14 20 -9 20 5 0 2 5 -6 10 -11 7 -11 10
-2 10 9 0 10 5 3 19 -6 10 -7 21 -4 25 11 11 14 48 3 41 -6 -3 -7 1 -4 9 3 9
10 13 15 10 5 -3 6 2 3 10 -3 9 -11 13 -18 9 -8 -5 -7 -2 1 8 6 8 10 27 9 41
-2 15 1 25 6 22 5 -3 7 -13 3 -23 -5 -12 -3 -13 5 -5 9 9 9 17 0 34 -10 18 -9
21 1 15 9 -6 11 -3 6 8 -4 10 -1 17 6 17 7 0 8 3 2 8 -5 4 -11 15 -11 25 -2
14 1 15 12 6 10 -8 12 -7 9 10 -2 12 0 21 4 21 4 0 7 10 6 23 -3 30 5 48 18
40 6 -3 7 -1 3 6 -4 6 -2 19 6 28 9 12 9 15 1 9 -7 -4 -13 -2 -13 3 0 6 5 11
11 11 6 0 9 9 6 20 -3 13 -1 18 6 13 7 -4 8 0 4 11 -4 10 -3 15 3 11 9 -6 15
22 11 53 -1 6 6 12 15 12 10 0 14 5 10 16 -3 8 -2 13 3 10 10 -7 22 17 27 52
2 14 -1 20 -8 16 -7 -4 -8 -2 -4 4 4 6 14 8 23 5 13 -5 15 -2 10 11 -4 9 -3
15 2 12 13 -8 35 22 36 48 0 14 6 21 17 20 10 -1 16 2 13 6 -3 5 1 11 7 13 10
4 10 6 1 6 -7 1 -13 6 -13 12 0 5 4 8 9 4 5 -3 16 1 24 9 8 8 18 12 23 8 5 -4
2 1 -5 11 -12 15 -12 17 4 11 14 -6 16 -4 10 7 -8 12 -6 12 8 1 14 -12 16 -11
12 7 -2 13 1 18 10 15 7 -3 16 -1 20 5 4 8 12 8 27 0 18 -10 20 -9 15 5 -6 15
-4 15 22 2 21 -11 31 -12 40 -3 8 8 11 8 11 -1 0 -7 7 -12 16 -12 8 0 12 -4 9
-10 -3 -6 1 -7 9 -4 12 4 16 0 16 -16 0 -11 5 -18 10 -15 6 3 10 1 10 -5 0 -6
5 -8 10 -5 6 4 10 -5 10 -20 0 -17 4 -24 12 -19 7 5 8 3 4 -5 -5 -7 0 -22 11
-34 18 -21 18 -21 -2 -7 -19 15 -19 15 -1 -14 10 -16 14 -26 9 -23 -5 4 -10 0
-10 -8 0 -8 3 -12 7 -10 3 2 12 0 20 -5 23 -14 42 8 29 32 -8 15 -8 19 0 13 8
-4 10 2 7 21 -6 29 -24 46 -39 37 -5 -3 -3 5 5 16 12 20 10 24 -12 42 -17 13
-19 17 -6 13 15 -6 14 -3 -5 18 -13 13 -31 22 -39 19 -13 -4 -13 -2 -2 11 11
14 9 16 -16 14 -17 -1 -29 3 -29 11 0 6 5 9 10 6 6 -3 7 -1 3 5 -4 6 -14 8
-23 5 -11 -5 -14 -3 -8 6 6 10 3 11 -11 4 -20 -10 -70 8 -57 20 3 4 3 7 0 7
-4 0 -8 -3 -8 -7z m-204 -243 c-3 -5 -12 -10 -18 -10 -7 0 -6 4 3 10 19 12 23
12 15 0z m-60 -100 c-3 -5 -12 -10 -18 -10 -7 0 -6 4 3 10 19 12 23 12 15 0z
m-138 -666 c-9 -9 -28 6 -21 18 4 6 10 6 17 -1 6 -6 8 -13 4 -17z m300 -189
c0 -8 -4 -12 -9 -9 -5 3 -6 10 -3 15 9 13 12 11 12 -6z"/>
<path d="M675 1540 c6 -10 4 -12 -8 -7 -11 4 -17 1 -17 -9 0 -8 -4 -13 -8 -10
-5 3 -9 -1 -9 -9 0 -8 3 -12 7 -10 4 2 7 -3 7 -11 0 -8 -5 -13 -11 -11 -7 3
-11 -12 -10 -42 1 -25 -3 -52 -10 -60 -8 -11 -8 -15 1 -18 9 -3 10 -10 3 -22
-12 -23 -9 -64 5 -73 6 -5 3 -8 -7 -8 -12 0 -15 -5 -11 -17 4 -10 2 -14 -4
-10 -5 3 -10 0 -10 -8 0 -8 4 -12 8 -10 4 3 9 -2 12 -10 4 -9 1 -12 -9 -8 -7
3 -14 0 -14 -6 0 -6 4 -11 9 -11 5 0 8 -11 7 -24 0 -16 -5 -21 -12 -16 -12 11
-11 -41 1 -61 5 -7 4 -10 -3 -5 -6 3 -13 2 -17 -4 -3 -5 -2 -10 3 -10 5 0 9
-7 9 -15 0 -12 -3 -12 -15 -2 -13 10 -14 9 -5 -7 8 -15 7 -28 -8 -55 -10 -19
-15 -39 -12 -45 4 -6 0 -5 -9 2 -13 10 -18 10 -24 1 -5 -8 -3 -9 6 -4 9 5 11
4 6 -4 -6 -9 -11 -9 -22 0 -11 9 -14 9 -14 -1 0 -7 -7 -10 -15 -6 -8 3 -15 1
-15 -5 0 -6 -5 -7 -12 -3 -7 4 -8 3 -4 -4 6 -10 -26 -18 -56 -13 -4 0 -4 -7
-1 -16 4 -10 2 -14 -5 -9 -6 3 -14 1 -18 -5 -4 -8 -9 -7 -15 2 -7 11 -9 11 -9
1 0 -7 -4 -10 -10 -7 -6 4 -7 -1 -3 -11 5 -13 3 -16 -10 -11 -12 4 -17 1 -17
-11 0 -13 -2 -14 -9 -3 -7 11 -11 10 -20 -5 -6 -11 -11 -14 -11 -9 0 6 -10 -1
-21 -15 -11 -14 -17 -19 -13 -11 4 9 3 12 -4 7 -6 -4 -8 -14 -5 -23 4 -11 3
-14 -5 -9 -7 4 -12 2 -12 -4 0 -6 -4 -9 -9 -6 -5 3 -12 -1 -15 -10 -9 -24 -7
-31 5 -14 9 13 10 13 6 0 -2 -8 -12 -14 -21 -14 -16 2 -16 1 0 -17 15 -17 15
-19 2 -14 -9 4 -19 1 -24 -6 -4 -7 -3 -10 3 -6 13 8 46 -27 36 -38 -5 -4 -2
-5 5 -1 7 4 9 12 6 18 -5 7 -1 9 9 5 12 -4 15 -1 12 16 -3 11 3 30 13 41 10
12 11 16 3 11 -10 -6 -12 -4 -7 4 5 7 14 10 22 7 8 -3 14 -1 14 5 0 6 6 7 12
3 8 -5 7 0 -2 11 -9 11 -10 16 -2 11 7 -4 12 -2 12 6 0 8 3 9 8 3 11 -16 29
-15 29 0 0 8 -5 11 -10 8 -6 -3 -7 -1 -3 6 4 6 16 9 27 6 14 -5 17 -3 13 9 -4
12 -2 15 9 11 8 -4 17 1 21 11 5 13 9 14 21 4 13 -11 14 -10 9 5 -5 13 -4 16
5 11 6 -4 19 -2 28 6 14 11 16 11 9 -2 -4 -8 1 -5 12 7 11 12 22 20 24 17 3
-2 17 0 31 5 24 9 28 2 17 -29 -1 -3 -3 -12 -4 -20 0 -8 -6 -14 -12 -13 -8 2
-9 -8 -4 -32 5 -24 4 -33 -3 -28 -7 4 -8 -5 -4 -28 3 -19 3 -28 0 -21 -2 6 -9
12 -14 12 -6 0 -7 -5 -4 -10 4 -6 1 -18 -7 -27 -9 -12 -9 -15 0 -9 15 9 16 -6
0 -22 -8 -8 -8 -15 1 -26 10 -12 8 -14 -11 -9 -13 3 -19 1 -13 -4 16 -13 18
-36 2 -30 -10 4 -12 -3 -9 -25 4 -24 2 -29 -9 -23 -11 7 -10 4 1 -10 14 -17
13 -18 -5 -11 -16 6 -17 5 -8 -5 10 -10 9 -17 -5 -33 -9 -11 -11 -16 -4 -12 6
4 12 2 12 -3 0 -6 -6 -11 -12 -11 -9 0 -8 -4 2 -10 13 -9 8 -14 -11 -12 -4 1
-4 -8 -1 -20 4 -15 2 -19 -7 -13 -10 6 -11 3 -2 -13 8 -15 8 -23 0 -27 -6 -4
-8 -13 -5 -21 3 -9 -1 -14 -12 -14 -10 0 -13 -3 -6 -8 6 -4 10 -17 9 -28 -1
-15 4 -21 14 -19 9 2 20 4 24 4 5 1 6 5 2 10 -3 6 3 14 12 20 14 8 15 11 3 11
-8 1 -5 5 9 11 19 7 21 12 12 23 -10 11 -9 21 4 45 8 17 11 31 6 31 -5 0 -12
-6 -14 -12 -4 -10 -6 -10 -6 0 -1 8 8 16 20 19 16 4 17 8 7 14 -11 7 -11 9 1
9 11 0 11 3 0 17 -12 15 -12 16 5 10 15 -6 17 -5 7 7 -9 11 -8 15 5 20 9 4 14
9 11 13 -4 3 -2 15 4 26 7 12 7 17 1 13 -6 -3 -9 5 -8 18 1 16 5 21 12 15 14
-11 15 21 1 39 -7 9 -5 11 8 6 12 -5 16 -4 11 4 -3 6 -2 14 4 17 8 5 7 12 -2
23 -7 9 -8 13 -2 9 11 -6 19 8 29 51 2 7 -2 9 -8 5 -7 -4 -6 1 2 10 7 9 11 26
8 37 -3 11 -2 18 2 15 14 -8 31 41 18 54 -8 8 -7 11 3 11 7 0 11 3 7 6 -3 3 0
12 6 19 9 10 15 10 26 1 12 -9 12 -8 2 11 -11 22 -10 22 14 13 16 -6 25 -6 25
0 0 6 5 10 11 10 5 0 7 -6 4 -12 -4 -7 0 -5 8 4 10 13 16 15 25 6 9 -9 12 -9
12 0 0 9 5 10 19 2 14 -7 22 -7 26 0 4 6 11 7 17 4 6 -4 8 -2 4 4 -3 6 -2 13
4 17 5 3 10 1 10 -5 0 -6 5 -8 12 -4 21 13 61 14 77 1 12 -10 13 -9 6 2 -6 11
-3 13 13 9 12 -4 22 -2 22 3 0 6 10 5 22 -2 17 -9 20 -9 15 4 -7 18 24 18 36
-1 7 -11 12 -11 24 -1 18 16 73 21 73 8 0 -6 -4 -7 -10 -4 -17 10 -11 -7 8
-22 9 -8 12 -12 6 -9 -16 8 -28 -25 -14 -34 8 -5 7 -9 -4 -13 -10 -4 -13 -16
-11 -37 3 -22 1 -29 -8 -23 -7 4 -7 0 2 -10 7 -9 9 -17 3 -17 -5 0 -8 -10 -4
-22 4 -15 2 -19 -7 -13 -10 6 -11 3 -1 -15 11 -20 10 -22 -4 -17 -9 4 -16 2
-16 -3 0 -6 4 -10 9 -10 5 0 12 -7 15 -16 5 -13 3 -14 -6 -6 -10 8 -14 3 -15
-21 -3 -59 -7 -77 -18 -77 -6 0 -7 -3 0 -8 17 -12 16 -32 -3 -32 -14 0 -15 -2
-2 -10 8 -5 10 -10 4 -10 -6 0 -10 -16 -10 -37 1 -21 -2 -48 -6 -60 -4 -12 -3
-25 2 -28 5 -3 7 -12 4 -20 -4 -8 -9 -13 -13 -11 -4 3 -6 -14 -5 -36 1 -45 24
-67 44 -43 6 8 9 19 5 25 -3 5 2 10 12 10 17 1 16 2 -2 17 -16 13 -17 15 -2
10 18 -7 24 8 6 18 -6 5 -4 12 8 22 17 14 17 14 -1 9 -16 -6 -17 -4 -6 9 7 8
9 15 6 15 -4 0 -2 8 3 18 6 11 6 24 0 35 -7 11 -6 17 1 17 7 0 8 6 1 19 -8 14
-6 22 9 36 17 15 19 52 4 77 -3 4 2 11 10 14 9 3 16 10 16 16 0 5 -6 6 -12 3
-7 -4 -4 1 6 9 18 15 15 21 -8 17 -5 -1 -4 5 4 13 15 19 24 21 14 4 -4 -7 -3
-8 5 -4 9 6 9 11 0 22 -9 11 -8 14 2 14 11 0 11 2 -1 10 -11 7 -11 10 -2 10 7
0 10 4 7 10 -3 5 -1 19 6 31 6 12 7 19 1 15 -6 -4 -8 2 -5 14 3 11 12 20 20
20 8 0 12 4 8 10 -3 5 -13 7 -23 4 -15 -5 -15 -4 1 6 9 6 15 15 12 21 -4 5 0
9 7 10 7 0 4 4 -7 9 l-20 9 20 0 c17 1 17 3 5 11 -10 6 -11 10 -2 10 6 0 11 6
10 13 -2 6 3 11 10 9 6 -1 12 4 12 10 0 9 4 8 10 -2 8 -13 10 -13 10 0 0 11 3
11 12 2 13 -13 32 -16 24 -4 -7 12 66 4 78 -8 7 -7 16 -4 29 12 10 13 16 17
12 11 -4 -9 3 -13 23 -13 18 0 32 -6 36 -16 3 -8 2 -12 -4 -9 -5 3 -9 -3 -9
-12 0 -15 -5 -63 -10 -96 0 -5 -5 -6 -10 -2 -6 3 -8 -6 -5 -21 3 -19 1 -24 -8
-18 -7 4 -10 4 -6 -1 4 -4 3 -14 -4 -22 -8 -10 -8 -12 4 -8 9 4 15 0 15 -9 0
-8 -6 -12 -13 -9 -6 2 -15 -1 -20 -8 -4 -8 -3 -10 4 -5 7 4 12 3 12 -3 0 -5
-4 -13 -10 -16 -5 -3 -10 -12 -10 -18 0 -7 4 -6 10 3 6 9 10 10 10 3 0 -6 -4
-15 -10 -18 -5 -3 -10 -20 -10 -36 0 -22 -4 -28 -12 -23 -9 5 -8 2 1 -9 8 -10
11 -20 7 -24 -3 -3 -6 -1 -6 6 0 7 -5 9 -10 6 -7 -4 -7 -12 -1 -23 7 -12 5
-23 -7 -36 -9 -11 -11 -16 -4 -12 7 5 12 1 12 -9 0 -10 -6 -15 -13 -12 -9 3
-13 -4 -12 -22 0 -17 6 -25 15 -23 8 2 11 0 7 -5 -5 -4 -14 -8 -20 -8 -5 0
-12 -6 -15 -14 -3 -8 0 -11 6 -7 7 4 5 -8 -3 -29 -9 -19 -15 -37 -15 -40 0
-22 -1 -25 -12 -19 -7 4 -8 3 -4 -5 4 -6 13 -8 19 -4 7 3 4 -3 -6 -15 -19 -20
-18 -21 4 -15 12 4 20 2 17 -3 -3 -5 1 -16 10 -24 14 -13 15 -12 9 3 -3 9 -2
17 3 17 6 0 9 6 7 13 -1 6 4 11 12 9 12 -3 12 -1 0 14 -8 10 -9 15 -3 11 15
-9 20 7 19 64 0 33 3 45 11 42 9 -3 11 3 7 18 -4 12 -2 20 3 16 5 -3 9 14 8
38 -1 30 2 42 11 39 6 -3 12 2 12 10 0 8 -5 12 -11 9 -6 -4 -5 1 2 10 8 9 11
21 7 27 -3 5 -1 10 4 10 6 0 11 5 11 11 0 5 -4 8 -8 5 -4 -2 -8 4 -8 14 0 11
5 16 15 12 9 -3 12 -1 7 6 -4 7 -2 12 4 12 6 0 8 5 5 10 -4 6 -1 18 7 27 9 12
9 15 1 9 -20 -12 -15 5 10 32 12 14 17 22 10 18 -6 -3 -14 -2 -18 4 -3 5 -1
10 5 10 6 0 9 4 5 9 -3 5 -1 12 5 16 7 4 7 12 0 25 -7 13 -7 21 0 25 6 4 8 11
5 16 -4 5 2 6 12 2 15 -6 16 -4 6 8 -8 9 -9 20 -3 29 6 8 10 28 10 43 0 16 4
26 8 23 4 -2 14 5 22 17 12 20 12 21 -3 9 -14 -12 -15 -11 -7 16 4 17 5 33 2
37 -4 3 0 10 8 16 10 5 11 12 5 17 -5 4 -11 13 -13 21 -3 12 0 12 12 2 13 -11
15 -10 11 8 -2 11 1 23 6 27 6 3 5 12 -3 22 -7 9 -8 13 -3 10 6 -4 17 2 24 14
7 11 8 17 3 14 -5 -3 -12 3 -15 14 -3 11 -1 23 4 26 5 3 6 10 3 16 -4 7 -2 8
4 4 8 -4 12 1 13 13 2 34 4 39 12 45 4 3 5 3 2 -1 -3 -3 3 -15 12 -26 10 -11
12 -17 6 -13 -7 4 -13 2 -13 -3 0 -6 5 -11 11 -11 8 0 7 -6 -2 -16 -12 -15
-11 -16 11 -10 17 5 21 4 11 -2 -8 -6 -10 -15 -5 -23 12 -20 14 -38 3 -45 -6
-3 -5 -11 2 -20 6 -7 9 -21 5 -29 -4 -11 1 -15 17 -15 16 0 18 -3 8 -9 -8 -5
-9 -11 -3 -15 5 -3 7 -16 5 -30 -3 -13 0 -27 6 -30 8 -5 8 -13 1 -26 -7 -13
-7 -21 2 -26 7 -5 8 -3 3 6 -5 8 -4 11 3 7 5 -4 8 -17 4 -29 -3 -13 -1 -19 5
-15 5 3 10 0 10 -8 0 -8 -4 -12 -9 -9 -4 3 -8 1 -8 -5 0 -5 6 -12 13 -14 9 -4
9 -6 -2 -6 -9 -1 -8 -6 6 -18 10 -10 13 -14 6 -9 -10 6 -12 4 -7 -8 3 -9 9
-16 13 -16 4 0 7 -20 6 -45 -1 -25 2 -48 8 -52 6 -4 7 -1 2 7 -5 9 -4 11 4 6
9 -6 9 -11 1 -21 -8 -9 -8 -14 0 -17 6 -2 11 -20 12 -41 1 -20 5 -37 10 -37 5
0 6 -6 1 -12 -11 -19 -13 -39 -2 -32 5 3 6 11 2 17 -4 7 0 6 10 -2 18 -14 23
-26 8 -16 -11 6 -8 -41 2 -52 12 -11 8 -24 -5 -17 -7 4 -4 -3 7 -16 12 -14 14
-20 5 -15 -8 5 -4 -3 10 -17 15 -16 27 -22 31 -16 4 6 11 8 17 4 6 -3 14 -1
18 5 4 7 3 9 -4 5 -6 -3 -13 -2 -17 4 -3 6 1 13 9 16 9 3 16 16 16 28 0 17 2
19 11 6 9 -12 10 -11 6 8 -3 12 -1 22 4 22 5 0 16 14 25 31 10 20 11 28 3 24
-8 -5 -10 -4 -5 3 4 7 15 12 24 12 10 0 13 3 6 8 -7 5 -7 14 1 29 9 18 14 20
25 10 10 -10 11 -8 2 8 -8 15 -6 22 6 33 10 7 11 10 3 6 -9 -5 -12 -3 -7 4 4
7 15 12 24 13 9 0 12 3 6 5 -17 7 -4 44 15 44 13 0 13 2 2 9 -11 7 -9 11 8 20
12 7 19 16 16 22 -4 5 -1 9 4 9 6 0 11 5 11 11 0 5 -5 7 -12 3 -7 -5 -8 -3 -4
5 5 7 15 10 23 6 13 -4 13 -3 4 9 -9 11 -8 15 4 20 8 3 15 10 15 16 0 6 -5 8
-12 4 -7 -4 -8 -3 -4 4 4 7 14 12 22 12 17 0 19 16 2 23 -10 4 -10 6 0 6 8 1
10 6 6 14 -5 8 -2 7 9 -2 15 -12 17 -12 11 3 -3 9 -1 16 4 16 6 0 9 9 7 20 -2
11 4 25 14 32 10 7 17 21 15 30 -1 12 3 15 14 11 10 -4 14 -3 10 2 -4 4 -3 14
4 22 9 11 7 12 -8 7 -18 -5 -18 -5 -1 6 9 6 15 15 12 20 -3 5 3 15 13 22 24
17 45 55 37 68 -3 6 2 10 12 10 15 0 16 2 3 10 -9 6 -10 10 -3 10 13 0 26 -17
29 -37 1 -7 -2 -13 -7 -13 -5 0 -9 -5 -9 -11 0 -5 6 -7 13 -3 6 4 3 -3 -8 -16
-11 -13 -15 -20 -9 -17 7 4 15 0 18 -9 4 -10 2 -13 -6 -8 -8 5 -9 -3 -5 -30 4
-27 3 -35 -6 -30 -8 5 -8 3 1 -7 6 -7 12 -17 12 -22 0 -4 -6 -5 -12 -2 -7 4
-5 0 5 -8 17 -14 17 -15 0 -21 -15 -6 -15 -8 -3 -16 11 -7 12 -10 2 -10 -7 0
-10 -5 -7 -11 12 -18 13 -59 1 -59 -6 0 -4 -5 4 -10 8 -5 10 -10 4 -10 -7 0
-9 -11 -6 -25 2 -14 -1 -32 -9 -41 -7 -8 -8 -14 -3 -13 23 4 26 -2 8 -17 -10
-8 -13 -12 -5 -8 11 5 13 3 8 -9 -3 -9 -2 -19 3 -22 13 -8 0 -36 -14 -28 -6 3
-8 3 -4 -2 4 -4 2 -15 -5 -24 -10 -14 -10 -14 4 -3 14 10 18 10 23 -3 3 -9 -1
-18 -10 -22 -13 -5 -13 -7 -2 -14 10 -7 10 -9 -1 -9 -11 0 -9 -4 5 -15 19 -15
19 -15 -1 -8 -18 6 -19 5 -5 -12 8 -10 10 -16 3 -12 -6 4 -15 2 -19 -4 -4 -7
-3 -9 3 -6 6 4 16 1 22 -7 9 -11 8 -14 -5 -12 -9 0 -18 -5 -20 -12 -1 -7 0 -8
3 -2 2 5 9 7 15 4 5 -3 2 -14 -8 -25 -17 -19 -17 -20 2 -14 17 6 17 5 4 -7
-18 -15 -18 -57 0 -68 14 -9 5 -30 -13 -30 -7 0 -6 4 3 10 9 6 10 10 3 10 -23
0 -23 -19 -1 -34 16 -12 18 -16 7 -16 -13 0 -15 -9 -12 -42 3 -24 10 -46 16
-50 8 -5 6 -8 -5 -8 -9 0 -20 -5 -23 -10 -4 -6 -3 -10 2 -9 22 4 33 -3 33 -18
0 -16 -2 -16 -11 -3 -9 12 -10 13 -7 0 3 -8 16 -15 31 -15 14 -1 24 2 22 6 -3
4 0 9 7 11 16 6 19 38 3 38 -8 0 -17 5 -21 12 -4 6 -3 9 2 6 5 -3 15 0 22 8 7
8 9 14 3 14 -5 0 -12 7 -15 16 -3 8 -2 13 3 10 17 -11 21 27 6 44 -12 14 -13
20 -4 26 8 4 10 3 5 -4 -4 -7 -2 -12 3 -12 13 0 15 17 3 24 -9 6 -8 48 2 64 4
7 2 12 -3 12 -6 0 -11 5 -11 11 0 5 4 8 8 5 5 -3 9 1 9 9 0 8 -4 15 -9 15 -4
0 -8 5 -8 11 0 5 4 7 10 4 6 -4 7 2 1 18 -6 16 -6 28 2 36 8 8 8 11 -2 11 -7
0 -9 5 -6 10 12 19 15 71 4 64 -8 -4 -8 0 -2 12 11 23 11 34 -1 53 -6 10 -5
12 2 7 16 -10 15 16 0 33 -10 11 -10 13 0 7 6 -4 12 -3 12 1 0 5 -6 15 -12 22
-11 11 -10 12 1 6 11 -6 13 -3 9 13 -4 13 -1 22 5 22 9 0 9 2 0 8 -7 4 -11 17
-10 29 0 12 5 19 9 17 11 -7 10 4 -2 27 -8 14 -7 19 2 19 9 0 9 3 -2 10 -12 8
-12 10 5 11 11 0 14 3 8 6 -7 2 -13 11 -13 19 0 9 5 12 13 8 10 -6 10 -4 0 7
-18 19 -16 29 5 23 14 -5 14 -4 3 4 -17 12 -24 42 -10 42 5 0 9 5 9 11 0 5 -4
8 -9 4 -5 -3 -13 0 -17 6 -4 7 -3 9 4 5 6 -3 13 -2 17 4 3 5 1 10 -4 10 -6 0
-11 5 -11 11 0 6 7 9 14 6 10 -4 13 -1 9 8 -3 8 -8 13 -12 10 -4 -2 -8 3 -8
11 0 8 6 13 13 10 14 -6 6 36 -10 46 -7 4 -5 9 5 13 11 4 14 14 11 30 -2 14
-9 22 -16 19 -6 -3 -2 2 8 10 15 12 16 16 5 16 -12 0 -12 2 1 10 13 8 13 11 1
19 -11 7 -10 11 5 20 11 6 13 11 6 11 -8 0 -11 10 -7 30 6 35 -18 72 -29 45
-3 -9 -9 -15 -13 -14 -20 3 -27 -2 -13 -11 9 -6 11 -10 3 -10 -7 0 -10 -7 -7
-15 4 -10 0 -13 -15 -10 -18 3 -20 1 -11 -15 7 -13 7 -21 -2 -26 -7 -5 -8 -3
-3 6 5 9 4 11 -4 6 -9 -6 -9 -12 1 -24 7 -10 9 -14 4 -10 -12 10 -55 -44 -51
-64 2 -11 -2 -18 -11 -18 -8 0 -14 -5 -14 -11 0 -5 6 -7 13 -3 6 4 2 -3 -10
-15 -27 -26 -31 -39 -5 -20 16 13 16 13 -1 -7 -9 -11 -14 -24 -10 -28 4 -4 -1
-4 -12 0 -18 7 -18 6 -7 -9 12 -14 11 -16 -8 -12 -18 3 -20 2 -10 -10 10 -12
9 -16 -4 -21 -13 -5 -14 -9 -5 -20 7 -8 9 -17 5 -21 -3 -3 -6 -1 -6 6 0 7 -4
9 -10 6 -5 -3 -10 -14 -10 -24 0 -10 -10 -23 -22 -30 -23 -11 -23 -11 2 -6 21
5 22 4 7 -5 -9 -6 -14 -16 -11 -22 5 -8 1 -9 -11 -4 -16 6 -16 4 -4 -11 8 -9
9 -14 2 -10 -14 9 -28 -27 -17 -45 5 -8 0 -7 -11 2 -11 9 -16 10 -11 3 4 -7 3
-13 -2 -13 -5 0 -8 -12 -6 -26 1 -14 0 -23 -3 -20 -7 7 -32 -24 -33 -39 0 -5
5 -3 10 5 6 9 10 10 10 3 0 -7 -9 -17 -20 -23 -11 -6 -20 -19 -20 -30 0 -10
-8 -24 -17 -29 -10 -6 -13 -11 -8 -11 6 0 3 -5 -5 -10 -10 -6 -11 -10 -2 -10
6 0 12 -5 12 -12 0 -6 -3 -9 -6 -5 -7 7 -44 -24 -44 -38 0 -5 4 -3 10 5 5 8
12 11 17 7 11 -11 -19 -28 -37 -21 -11 4 -12 2 -3 -7 12 -12 6 -42 -7 -34 -4
3 -11 -2 -14 -11 -4 -10 -2 -13 7 -9 6 4 4 0 -5 -8 -10 -8 -18 -23 -18 -33 0
-15 -2 -16 -9 -4 -6 8 -7 18 -4 24 3 5 1 6 -5 2 -7 -4 -12 -2 -12 4 0 6 -4 9
-8 6 -4 -2 -6 11 -4 30 2 19 -1 40 -7 48 -6 7 -8 16 -4 20 11 10 12 37 2 30
-5 -3 -7 -10 -4 -15 3 -5 -1 -6 -10 -2 -13 4 -14 8 -4 14 10 6 10 11 -1 24
-11 13 -11 18 -1 25 11 6 11 9 0 13 -12 4 -11 7 1 16 11 8 12 11 2 11 -8 0
-10 5 -6 13 5 8 2 7 -9 -2 -16 -13 -17 -12 -8 13 7 18 7 26 0 26 -6 0 -7 5 -4
10 4 6 1 17 -5 25 -8 9 -8 15 -2 15 11 0 11 18 -1 37 -4 6 -1 14 5 17 7 4 4 5
-8 2 -17 -3 -20 1 -16 20 2 13 -1 30 -7 38 -8 10 -9 16 -1 21 5 3 10 11 10 16
0 6 -4 7 -10 4 -9 -6 -15 8 -11 29 1 5 -4 13 -11 17 -10 7 -10 9 1 9 11 0 11
3 0 17 -12 15 -12 16 1 8 13 -8 13 -7 0 10 -8 10 -14 20 -12 22 1 1 2 12 2 24
0 15 -5 19 -15 15 -12 -4 -12 0 2 21 13 19 14 25 4 19 -11 -7 -13 -4 -8 13 3
12 -1 27 -8 35 -11 10 -11 16 -2 26 9 10 9 11 0 6 -9 -5 -13 0 -13 13 0 12 -6
21 -12 21 -9 0 -8 4 2 11 12 8 12 12 2 16 -10 4 -10 8 -1 19 9 11 9 14 0 14
-7 0 -9 5 -5 12 5 7 2 9 -9 5 -10 -4 -17 0 -20 11 -4 15 -5 15 -6 -1 -1 -11
-6 -15 -13 -11 -8 5 -9 2 -5 -9 4 -11 1 -17 -9 -17 -9 0 -12 5 -8 12 4 7 3 8
-5 4 -7 -5 -9 -12 -3 -19 11 -14 12 -47 1 -47 -9 0 -6 -20 4 -37 6 -9 3 -11
-8 -7 -9 4 -15 3 -14 -2 1 -5 0 -11 -1 -14 -9 -22 -9 -61 -1 -55 7 3 8 0 5 -9
-3 -9 -14 -16 -23 -16 -9 0 -12 -3 -6 -8 13 -9 18 -35 6 -27 -6 3 -10 -12 -9
-39 1 -44 -8 -70 -20 -62 -4 2 -7 -10 -6 -27 0 -41 -6 -58 -17 -51 -5 3 -9 2
-8 -3 1 -4 0 -11 -1 -15 -5 -14 -7 -28 -9 -40 -1 -9 -24 -13 -84 -12 -45 0
-88 -5 -96 -10 -11 -8 -13 -8 -7 2 6 9 3 12 -10 10 -11 -2 -22 -7 -25 -12 -4
-5 -10 1 -14 13 -3 11 -11 21 -18 21 -8 0 -8 3 1 12 16 16 15 31 0 22 -9 -5
-9 -3 1 9 7 9 11 28 9 42 -3 14 -2 25 3 25 4 0 4 13 -1 30 -8 27 -7 29 10 20
16 -8 18 -8 14 5 -4 8 -10 15 -15 15 -5 0 -9 4 -9 10 0 5 7 7 16 3 14 -5 15
-3 5 15 -7 13 -8 22 -2 22 5 0 8 11 5 24 -2 14 0 28 6 31 6 4 8 10 5 15 -3 5
1 25 9 44 9 21 11 38 6 41 -13 8 11 45 25 39 5 -3 3 1 -6 8 -15 12 -15 15 0
28 14 14 14 15 -3 18 -15 3 -16 6 -5 13 10 6 4 8 -17 7 -21 -1 -30 -6 -27 -15
3 -7 0 -13 -7 -13 -6 0 -10 -8 -7 -17 2 -10 -2 -30 -9 -44 -7 -15 -10 -29 -7
-33 4 -3 7 -16 8 -28 2 -20 1 -20 -12 -2 -13 17 -14 16 -8 -14 4 -24 2 -31 -6
-27 -8 5 -8 2 -1 -11 11 -23 5 -46 -11 -38 -7 3 -4 -1 6 -9 18 -15 18 -15 -2
-22 -19 -6 -20 -8 -5 -30 11 -18 12 -25 3 -31 -8 -4 -9 -3 -5 4 10 17 1 15
-14 -4 -8 -8 -9 -14 -4 -12 9 3 14 -4 14 -23 0 -5 -5 -7 -12 -3 -7 5 -8 3 -3
-7 14 -21 12 -79 -2 -79 -6 0 -15 -4 -18 -10 -3 -6 1 -7 9 -4 19 7 21 -7 4
-25 -10 -11 -10 -12 -1 -7 9 5 11 2 7 -8 -3 -9 -12 -12 -21 -9 -10 4 -14 2
-10 -4 3 -5 0 -10 -8 -10 -8 0 -15 4 -15 9 0 5 -7 3 -15 -6 -15 -15 -50 -12
-40 3 2 4 -2 8 -10 8 -9 0 -14 -6 -13 -13 2 -7 -1 -12 -7 -11 -5 1 -9 4 -8 7
1 3 -7 6 -18 6 -10 0 -19 -4 -19 -9 0 -4 -4 -5 -10 -2 -5 3 -10 1 -10 -6 0 -7
-7 -4 -16 7 -8 10 -13 14 -10 8 3 -7 -3 -14 -14 -17 -13 -3 -18 -1 -13 6 4 7
-1 6 -10 -2 -14 -11 -17 -11 -17 0 0 9 -3 10 -8 4 -9 -14 -55 -17 -63 -4 -4 7
-9 4 -12 -6 -5 -10 -3 -14 5 -9 6 4 8 3 5 -3 -3 -5 -28 -9 -55 -9 -39 1 -49
-2 -45 -14 4 -12 2 -11 -9 2 -13 15 -15 15 -25 0 -10 -15 -11 -14 -8 6 2 12
-1 22 -6 22 -6 0 -7 5 -4 10 4 6 11 7 17 4 5 -4 5 4 -2 16 -10 19 -10 22 2 18
9 -4 14 1 14 13 0 11 -3 19 -6 19 -4 0 -7 7 -7 15 0 8 4 15 8 15 4 0 6 11 4
25 -1 14 1 25 4 25 3 0 7 11 7 25 1 16 -2 22 -10 18 -7 -4 -6 -1 1 9 7 8 10
18 6 21 -3 4 -1 7 7 7 9 0 11 9 7 30 -4 17 -3 30 2 30 5 0 7 10 3 22 -4 16 -2
19 9 13 8 -5 7 0 -4 12 -15 17 -15 22 -4 31 8 7 16 10 18 7 3 -2 5 4 5 15 0
14 -3 16 -13 8 -8 -6 -16 -8 -20 -4 -3 3 -1 6 6 6 7 0 11 7 8 14 -4 9 -1 13 7
10 9 -3 11 5 8 32 -3 24 0 39 9 45 10 6 11 9 2 9 -7 0 -13 6 -13 14 0 8 -5 18
-12 22 -7 5 -8 3 -3 -6z m1555 -164 c0 -2 -7 -7 -16 -10 -8 -3 -12 -2 -9 4 6
10 25 14 25 6z m-1066 -122 c3 -8 2 -12 -4 -9 -6 3 -10 10 -10 16 0 14 7 11
14 -7z m296 -184 c0 -5 -5 -10 -11 -10 -5 0 -7 5 -4 10 3 6 8 10 11 10 2 0 4
-4 4 -10z m-275 -40 c3 -5 1 -10 -4 -10 -6 0 -11 5 -11 10 0 6 2 10 4 10 3 0
8 -4 11 -10z m540 -18 c-3 -3 -11 0 -18 7 -9 10 -8 11 6 5 10 -3 15 -9 12 -12z
m-951 -83 c-3 -5 -10 -7 -15 -3 -5 3 -7 10 -3 15 3 5 10 7 15 3 5 -3 7 -10 3
-15z m-219 -219 c-3 -5 -12 -10 -18 -10 -7 0 -6 4 3 10 19 12 23 12 15 0z
m1700 -170 c-3 -5 -12 -10 -18 -10 -7 0 -6 4 3 10 19 12 23 12 15 0z m-949
-186 c1 -9 0 -13 -4 -10 -3 4 -7 14 -8 22 -1 9 0 13 4 10 3 -4 7 -14 8 -22z
m-849 -30 c-3 -3 -12 -4 -19 -1 -8 3 -5 6 6 6 11 1 17 -2 13 -5z m587 -26 c-3
-4 -11 -5 -19 -1 -21 7 -19 12 4 10 11 0 18 -5 15 -9z"/>
<path d="M5406 1531 c-4 -5 -14 -7 -24 -4 -14 6 -15 4 -4 -9 10 -13 10 -18 1
-24 -8 -4 -9 -3 -5 4 4 7 1 12 -6 12 -8 0 -14 -9 -14 -20 0 -11 5 -20 11 -20
5 0 4 -4 -2 -8 -7 -5 -14 -27 -15 -50 -1 -27 -4 -38 -10 -30 -6 11 -11 -36 -7
-68 0 -4 -5 -11 -13 -15 -11 -7 -11 -9 1 -9 11 0 11 -3 1 -15 -6 -8 -9 -19 -5
-25 3 -5 1 -10 -4 -10 -6 0 -11 -5 -11 -11 0 -5 6 -7 13 -3 7 5 6 0 -3 -10 -8
-10 -15 -30 -16 -45 -2 -45 -4 -52 -12 -47 -5 3 -9 -1 -9 -9 0 -8 5 -11 11 -8
6 4 5 -1 -2 -10 -8 -9 -11 -21 -7 -27 3 -5 0 -10 -7 -10 -9 0 -9 -3 2 -10 13
-9 7 -14 -12 -11 -4 0 -5 -6 -2 -14 4 -8 11 -15 18 -15 6 0 4 -4 -4 -10 -9 -6
-17 -5 -22 3 -10 15 -5 -24 5 -40 4 -6 2 -15 -4 -19 -8 -5 -9 -3 -4 6 5 9 4
11 -4 6 -9 -6 -9 -11 -1 -21 8 -9 8 -15 0 -20 -6 -3 -8 -12 -4 -18 3 -7 -7 2
-23 19 -24 27 -34 30 -73 28 -55 -3 -92 -13 -84 -25 3 -5 -1 -6 -9 -3 -8 3
-17 -2 -20 -10 -4 -9 -12 -16 -19 -16 -14 0 -62 -47 -64 -62 -1 -4 -2 -13 -3
-19 0 -5 -5 -8 -10 -4 -6 3 -8 -4 -6 -15 2 -11 0 -18 -6 -15 -5 4 -9 -1 -9
-10 0 -10 -5 -13 -12 -9 -8 5 -7 0 2 -11 9 -11 10 -16 3 -11 -13 7 -17 -4 -13
-33 1 -8 -4 -12 -14 -8 -11 4 -14 0 -11 -15 3 -11 0 -30 -6 -40 -9 -16 -8 -19
3 -13 10 6 11 5 1 -6 -15 -16 -17 -33 -3 -24 5 3 7 0 4 -9 -3 -8 -11 -14 -17
-12 -7 1 -9 1 -4 -1 11 -7 9 -43 -3 -43 -5 0 -10 -5 -10 -11 0 -5 6 -7 13 -3
9 6 9 4 1 -7 -12 -16 -12 -48 -1 -66 5 -8 4 -13 -3 -13 -6 0 -2 -10 9 -22 15
-15 18 -25 10 -34 -12 -15 4 -28 24 -19 6 4 3 -1 -7 -9 -17 -14 -17 -16 -4
-16 9 0 20 -5 24 -12 5 -7 3 -8 -6 -3 -8 5 -11 4 -7 -3 4 -5 16 -8 27 -5 11 3
20 0 20 -6 0 -6 7 -8 17 -4 12 5 14 3 8 -7 -5 -8 -4 -11 3 -6 5 3 12 3 15 -1
2 -5 2 -2 1 5 -2 6 0 12 4 13 4 0 15 2 25 4 9 2 15 0 13 -4 -3 -4 4 -7 14 -7
11 0 17 2 16 4 -6 6 41 52 52 52 6 0 9 7 6 15 -5 11 -2 13 10 9 12 -5 15 -2
10 12 -5 15 -4 16 4 5 6 -8 8 -21 4 -29 -4 -11 -1 -13 8 -7 10 6 11 4 4 -6
-11 -19 -14 -40 -4 -34 4 3 11 -7 15 -22 3 -15 9 -22 13 -16 4 5 15 9 24 8 11
-2 15 2 11 13 -4 10 -2 13 5 8 8 -5 10 -2 6 8 -3 9 -9 14 -13 11 -4 -2 -8 2
-8 10 0 8 3 12 7 10 3 -2 6 7 6 20 0 13 -3 22 -7 19 -11 -7 -7 39 5 54 5 8 10
36 11 63 1 30 8 57 17 69 15 17 15 19 0 25 -16 6 -16 8 1 20 10 7 18 16 18 19
-4 31 1 56 9 51 6 -4 7 1 3 11 -5 13 -3 15 8 9 8 -5 5 2 -5 14 -15 16 -16 20
-5 16 13 -5 15 0 11 26 -4 25 -2 31 9 27 12 -5 14 2 11 30 -4 27 -2 33 9 26
12 -6 12 -5 1 8 -10 12 -9 18 3 28 11 9 12 16 5 25 -8 9 -6 17 5 29 10 9 12
16 5 16 -6 0 -8 5 -3 13 4 6 8 28 9 47 3 51 3 52 17 44 9 -6 9 -5 0 7 -10 12
-10 18 -1 27 7 7 8 12 3 12 -4 0 0 10 11 22 10 12 14 18 7 15 -6 -4 -14 -3
-18 3 -3 5 -2 10 4 10 5 0 8 9 6 20 -2 11 1 23 7 26 7 5 8 2 3 -6 -6 -9 -4
-11 5 -5 10 6 10 11 -3 20 -22 16 -21 23 1 21 10 0 16 5 13 14 -9 41 -8 60 3
51 8 -7 12 -4 12 9 0 10 -3 17 -6 15 -4 -2 -7 2 -7 10 0 8 5 13 11 12 13 -3
15 23 3 48 -9 18 -9 19 7 6 15 -13 16 -12 7 13 -9 22 -8 26 6 26 15 0 14 2 -3
16 -10 8 -14 13 -8 10 6 -3 16 6 22 19 10 21 9 23 -6 18 -15 -6 -15 -5 -3 11
10 12 11 20 4 27 -8 8 -13 8 -17 0z m14 -11 c0 -5 -5 -10 -11 -10 -5 0 -7 5
-4 10 3 6 8 10 11 10 2 0 4 -4 4 -10z m-226 -596 c3 -8 2 -12 -4 -9 -6 3 -10
10 -10 16 0 14 7 11 14 -7z m-20 -64 c3 0 3 8 -1 18 -3 9 -3 14 1 11 4 -4 9
-16 11 -29 2 -12 12 -29 22 -36 17 -13 17 -14 1 -8 -10 3 -18 1 -18 -5 0 -6 6
-11 13 -11 8 0 8 -3 1 -8 -5 -4 -11 -23 -12 -42 -2 -19 -4 -44 -6 -55 -2 -11
1 -26 7 -33 7 -9 5 -11 -8 -6 -13 5 -16 4 -11 -4 4 -7 2 -12 -4 -12 -6 0 -8
-5 -4 -11 3 -6 0 -15 -7 -20 -11 -7 -11 -9 -1 -9 7 0 10 -5 7 -10 -4 -6 -12
-7 -18 -3 -7 4 -6 -1 2 -10 12 -16 12 -17 -5 -11 -16 6 -17 5 -6 -7 10 -11 8
-17 -10 -32 -13 -10 -18 -16 -12 -13 6 3 11 -1 11 -8 0 -8 -6 -12 -13 -9 -7 2
-11 -3 -11 -14 1 -10 -3 -17 -10 -16 -6 1 -10 -8 -8 -22 2 -21 0 -23 -12 -13
-8 6 -13 7 -12 2 5 -15 -12 -54 -22 -54 -6 0 -8 -4 -5 -8 3 -5 -1 -9 -9 -9 -8
0 -12 5 -9 11 3 6 0 4 -8 -5 -13 -15 -71 -22 -62 -7 6 10 -9 10 -21 1 -6 -5
-7 -4 -2 1 10 14 9 28 -3 21 -5 -3 -7 0 -4 8 3 8 -2 21 -11 30 -9 10 -11 18
-5 22 6 4 8 11 4 16 -3 6 2 17 12 25 15 11 16 13 3 8 -26 -9 -29 8 -9 51 13
28 15 43 8 52 -10 12 -4 17 15 14 5 -1 6 3 2 9 -4 6 -2 17 5 25 7 9 8 15 0 20
-5 3 -10 12 -10 18 0 7 4 6 10 -3 8 -12 10 -11 10 8 0 12 5 22 11 22 5 0 7 5
4 10 -3 6 -2 10 4 10 6 0 8 6 5 13 -3 8 5 19 18 25 23 12 23 12 -2 6 l-25 -6
24 17 c18 14 20 19 10 26 -11 7 -9 9 6 10 11 1 23 1 28 0 4 0 6 2 6 6 -1 5 0
11 1 16 3 8 7 23 9 33 0 4 8 1 16 -6 13 -11 14 -10 9 4 -6 15 -1 17 35 13 25
-2 41 0 42 7 0 6 4 1 9 -11 5 -13 12 -23 14 -23z m-144 -14 c0 -3 -4 -8 -10
-11 -5 -3 -10 -1 -10 4 0 6 5 11 10 11 6 0 10 -2 10 -4z"/>
<path d="M5656 1531 c-4 -5 -3 -16 0 -25 4 -10 1 -16 -7 -16 -11 0 -11 -3 1
-10 8 -5 10 -10 5 -10 -6 0 -10 -12 -9 -27 1 -33 -16 -64 -31 -56 -5 3 -4 0 3
-8 6 -7 12 -17 12 -22 0 -4 -6 -5 -12 -1 -10 6 -10 4 -2 -7 16 -21 11 -44 -9
-43 -13 1 -15 -1 -8 -10 7 -9 7 -17 -2 -26 -8 -9 -8 -11 0 -6 12 6 11 -7 -1
-36 -4 -9 -5 -21 -2 -27 4 -5 1 -13 -5 -17 -8 -5 -9 -3 -4 6 5 8 4 11 -2 7 -6
-4 -10 -26 -9 -51 1 -24 -2 -42 -5 -40 -4 2 -10 -3 -13 -12 -9 -23 -7 -31 3
-16 7 11 9 11 14 -2 4 -9 1 -15 -6 -13 -7 1 -13 -10 -15 -25 -2 -16 -8 -28
-14 -28 -7 0 -7 -5 1 -14 13 -16 4 -49 -12 -39 -5 3 -7 1 -3 -5 3 -5 3 -12 -1
-15 -5 -2 -3 -2 4 -1 7 2 15 -2 19 -8 4 -6 3 -8 -3 -5 -17 11 -29 -15 -28 -60
0 -28 -5 -45 -14 -48 -8 -3 -11 -8 -8 -12 4 -3 2 -12 -5 -20 -8 -11 -7 -12 6
-7 12 5 15 2 10 -10 -3 -9 -11 -16 -18 -16 -6 0 -4 -5 4 -10 8 -5 10 -10 5
-10 -6 0 -11 -9 -12 -20 -1 -13 2 -18 9 -14 7 4 8 2 4 -5 -4 -6 -12 -9 -17 -6
-5 4 -9 3 -10 -2 0 -4 -2 -16 -4 -26 -2 -9 0 -15 5 -12 4 3 6 -4 3 -15 -3 -11
-10 -17 -17 -13 -7 4 -7 1 1 -8 10 -12 10 -18 1 -27 -9 -9 -9 -12 1 -12 7 0 9
-5 6 -10 -5 -8 -12 -7 -23 2 -15 11 -15 11 -5 -3 7 -9 9 -20 5 -24 -4 -5 -2
-5 4 -2 7 4 14 -2 17 -15 4 -16 3 -18 -6 -9 -17 17 -31 13 -17 -4 7 -8 9 -15
4 -15 -5 0 -10 -11 -10 -25 -1 -16 2 -22 10 -18 6 4 5 -1 -3 -11 -13 -15 -13
-19 0 -27 8 -5 9 -9 3 -9 -7 0 -11 -15 -11 -34 1 -19 6 -34 12 -33 5 1 9 -5 9
-14 -1 -11 5 -15 17 -12 11 3 19 1 19 -4 0 -13 73 -11 83 2 5 7 10 7 15 0 9
-12 32 -18 31 -7 -3 19 2 33 10 28 5 -3 15 2 22 11 12 14 12 16 0 9 -10 -6
-12 -4 -7 11 5 16 1 19 -23 19 -22 0 -28 -3 -23 -15 5 -14 3 -14 -11 -2 -14
11 -18 11 -23 -3 -5 -12 -10 -13 -26 -5 -15 8 -19 8 -14 0 4 -6 2 -11 -3 -11
-6 0 -11 7 -11 16 0 9 -5 12 -11 8 -8 -5 -10 1 -7 20 3 15 1 26 -6 26 -8 0 -8
2 0 8 14 9 27 45 14 37 -14 -9 -12 9 2 23 9 9 9 12 0 12 -7 0 -12 5 -12 11 0
5 4 8 9 5 13 -8 21 18 10 35 -5 9 -3 22 6 36 11 16 12 23 2 26 -7 3 -5 6 6 6
9 1 17 6 17 12 0 5 -4 8 -9 5 -5 -3 -11 1 -14 9 -4 9 -1 12 7 9 8 -3 17 0 22
7 5 8 3 10 -6 4 -10 -6 -12 -4 -7 8 4 10 10 24 14 34 5 12 3 14 -8 8 -12 -8
-12 -6 0 8 7 9 11 24 7 32 -3 8 0 15 6 15 6 0 5 6 -3 17 -8 9 -9 14 -3 10 13
-8 37 16 27 27 -15 14 -12 38 4 32 12 -5 13 -3 5 7 -9 10 -8 17 0 25 9 9 9 12
0 12 -7 0 -12 5 -12 11 0 5 5 7 10 4 12 -7 12 -6 14 63 1 34 7 57 16 63 8 5
11 9 5 9 -5 0 -3 5 5 10 12 8 13 12 2 19 -11 6 -10 11 3 25 15 15 15 16 -2 17
-16 0 -16 1 2 9 14 6 15 9 5 10 -10 1 -9 4 5 10 14 6 15 9 5 10 -12 0 -11 3 3
11 14 8 16 14 6 25 -8 10 -9 14 0 14 9 0 9 5 0 21 -6 12 -7 19 -1 15 12 -7 26
25 15 33 -4 3 -9 12 -11 20 -3 12 -1 12 15 1 10 -8 15 -10 11 -6 -4 5 -2 16 5
24 9 13 9 14 0 8 -17 -9 -17 16 -1 32 7 7 8 12 2 12 -6 0 -11 7 -11 15 0 10 4
12 12 5 9 -8 11 -3 7 16 -3 16 -1 24 4 21 6 -3 11 4 11 16 2 17 0 19 -7 7 -6
-9 -10 -10 -10 -3 0 6 4 14 8 17 4 2 9 20 10 39 2 24 -2 37 -14 41 -11 4 -15
2 -11 -8 4 -10 1 -13 -8 -9 -8 3 -12 9 -9 14 3 5 3 9 0 9 -3 0 -7 -4 -10 -9z
m-53 -366 c-3 -9 -8 -14 -10 -11 -3 3 -2 9 2 15 9 16 15 13 8 -4z"/>
<path d="M5605 1331 c-3 -5 -2 -12 3 -15 5 -3 9 1 9 9 0 17 -3 19 -12 6z"/>
<path d="M1556 1262 c-3 -5 1 -9 9 -9 8 0 12 4 9 9 -3 4 -7 8 -9 8 -2 0 -6 -4
-9 -8z"/>
<path d="M1598 1223 c7 -3 16 -2 19 1 4 3 -2 6 -13 5 -11 0 -14 -3 -6 -6z"/>
<path d="M2185 1190 c-3 -5 -1 -10 4 -10 6 0 11 5 11 10 0 6 -2 10 -4 10 -3 0
-8 -4 -11 -10z"/>
<path d="M1627 1099 c7 -7 15 -10 18 -7 3 3 -2 9 -12 12 -14 6 -15 5 -6 -5z"/>
<path d="M5605 1010 c-3 -6 1 -7 9 -4 18 7 21 14 7 14 -6 0 -13 -4 -16 -10z"/>
<path d="M6020 965 c-2 -5 -2 -13 -2 -16 1 -4 -8 -4 -20 -1 -16 4 -19 2 -13
-8 5 -9 4 -11 -4 -6 -6 4 -19 2 -28 -6 -14 -11 -16 -11 -9 2 4 9 2 8 -7 -2 -8
-10 -18 -14 -23 -10 -4 4 -2 -1 5 -11 12 -15 12 -17 -3 -11 -9 4 -16 2 -14 -3
2 -6 -8 -20 -22 -32 -14 -13 -19 -19 -11 -15 10 5 12 3 7 -5 -5 -7 -15 -10
-23 -6 -13 5 -14 3 -3 -10 11 -13 11 -16 0 -13 -8 2 -15 -1 -15 -7 -3 -29 -18
-55 -28 -49 -9 5 -9 3 0 -6 10 -11 9 -16 -5 -26 -10 -8 -12 -13 -4 -14 6 0 12
-5 12 -11 0 -5 -4 -7 -10 -4 -9 6 -14 -8 -11 -27 0 -5 -5 -8 -11 -8 -9 0 -8
-4 2 -10 13 -9 13 -12 -2 -23 -11 -9 -14 -18 -8 -27 5 -9 5 -19 -2 -27 -6 -7
-7 -13 -2 -13 5 0 2 -5 -6 -10 -12 -8 -12 -10 -1 -10 11 0 11 -3 1 -15 -10
-12 -10 -15 0 -15 9 0 9 -4 2 -13 -7 -8 -7 -18 -2 -27 5 -9 5 -19 -2 -27 -7
-9 -7 -13 2 -13 10 0 10 -3 0 -16 -11 -13 -10 -16 8 -21 12 -3 19 -9 16 -14
-3 -5 -11 -7 -17 -3 -7 3 -5 0 4 -8 9 -7 15 -22 14 -34 -1 -13 5 -21 18 -22
11 0 23 -5 26 -9 8 -10 32 -10 50 1 10 7 12 3 7 -15 -3 -13 -3 -18 0 -11 3 6
11 9 16 6 7 -5 8 -2 3 6 -6 10 -4 12 7 7 9 -3 21 0 28 6 10 9 11 9 5 -3 -7
-12 -6 -13 7 -3 8 7 19 9 23 5 5 -4 5 2 1 12 -6 17 -5 17 11 5 12 -10 15 -10
9 -1 -6 9 -1 12 17 8 18 -3 24 0 23 12 0 10 5 16 12 14 6 -1 12 2 12 8 0 5 -6
10 -12 11 -7 0 -4 4 7 9 11 5 14 9 7 9 -7 1 -11 5 -8 9 2 4 -8 8 -24 7 -15 0
-26 -3 -23 -7 10 -17 -8 -28 -27 -18 -16 8 -18 7 -14 -4 3 -8 0 -17 -7 -22 -7
-4 -10 -3 -6 2 3 5 -3 10 -13 10 -12 0 -16 -4 -10 -11 5 -6 0 -10 -15 -10 -13
0 -21 3 -18 7 2 5 -1 8 -6 8 -6 0 -11 -5 -11 -11 0 -5 -5 -7 -10 -4 -6 4 -7
12 -3 18 4 7 -1 6 -10 -2 -15 -12 -17 -12 -11 3 4 10 0 18 -11 22 -9 4 -14 13
-11 20 3 8 2 14 -2 14 -10 0 -9 41 1 57 4 6 3 13 -3 15 -5 1 -7 13 -4 25 4 14
11 20 18 16 6 -4 5 1 -3 10 -7 9 -12 17 -10 18 33 7 38 6 32 -4 -3 -7 2 -4 13
5 10 9 21 16 24 16 14 -2 50 14 45 21 -2 5 7 13 21 20 20 9 24 9 19 -1 -4 -7
1 -4 10 7 9 11 21 19 27 17 6 -2 8 4 5 11 -3 9 1 14 11 13 11 -1 16 6 16 17
-2 15 1 16 14 5 12 -10 14 -10 8 0 -5 8 -1 12 11 13 10 0 13 3 6 6 -17 6 -16
23 1 23 9 0 12 7 9 23 -4 18 -3 19 6 7 12 -16 11 -22 15 92 2 49 0 55 -13 45
-12 -9 -13 -9 -7 1 4 6 2 12 -3 12 -6 0 -11 5 -11 11 0 5 6 7 13 3 9 -6 9 -5
-1 8 -7 8 -22 15 -35 14 -12 -1 -25 6 -29 14 -4 8 -7 11 -8 5z m-9 -74 c15 7
21 6 25 -6 3 -8 13 -15 22 -15 12 0 13 -3 4 -12 -13 -13 -16 -32 -4 -24 4 2 8
-4 8 -14 0 -10 -4 -16 -10 -13 -5 3 -7 -6 -4 -21 4 -21 3 -24 -9 -15 -11 10
-12 8 -7 -6 6 -14 4 -16 -7 -10 -12 8 -12 6 0 -8 10 -12 10 -17 2 -17 -7 0
-19 -7 -27 -15 -11 -11 -12 -15 -3 -15 7 0 9 -3 6 -6 -4 -4 -14 -1 -23 7 -13
11 -15 11 -12 -3 1 -9 -1 -17 -6 -16 -5 0 -13 -7 -18 -16 -5 -9 -18 -16 -30
-16 -15 0 -18 -4 -14 -16 5 -14 4 -15 -9 -4 -8 7 -15 9 -15 4 0 -5 -10 -9 -23
-9 -13 0 -24 6 -24 13 0 6 5 12 11 12 6 0 4 5 -4 10 -11 7 -11 10 -2 10 7 0
10 5 7 10 -4 6 -1 9 6 8 6 -2 14 3 17 11 3 8 0 11 -7 7 -17 -11 -13 -2 13 29
14 16 22 35 18 43 -4 11 -2 13 9 7 12 -8 12 -6 1 8 -12 14 -11 16 8 12 19 -4
20 -2 8 12 -7 9 -8 14 -2 10 7 -4 15 0 18 9 3 9 11 12 18 8 9 -6 9 -3 0 9 -12
14 -11 16 7 12 11 -2 20 -1 20 3 -1 4 0 14 1 22 1 10 3 11 7 3 3 -9 10 -10 24
-2z m-140 -144 c-10 -9 -11 -8 -5 6 3 10 9 15 12 12 3 -3 0 -11 -7 -18z"/>
<path d="M6333 950 c-4 -16 -8 -18 -20 -9 -11 10 -12 8 -3 -15 7 -20 7 -25 -1
-20 -9 5 -10 -1 -5 -20 4 -18 3 -25 -4 -21 -13 8 -13 -8 1 -22 8 -8 6 -15 -9
-24 -17 -11 -19 -16 -9 -28 10 -12 9 -13 -2 -7 -10 7 -12 3 -6 -13 5 -16 1
-27 -12 -37 -10 -9 -13 -13 -6 -10 7 4 11 -1 10 -14 -1 -11 -7 -18 -13 -16 -7
3 -10 -3 -7 -15 3 -10 10 -16 17 -12 6 3 3 -3 -7 -14 -13 -15 -15 -23 -6 -28
8 -6 7 -10 -5 -17 -9 -5 -13 -14 -9 -21 13 -21 12 -37 -3 -37 -9 0 -12 -5 -9
-10 4 -6 11 -7 17 -4 7 4 8 2 4 -5 -4 -6 -12 -8 -18 -5 -6 4 -8 -1 -3 -16 5
-16 4 -20 -5 -15 -9 6 -9 3 -1 -13 13 -25 5 -52 -17 -52 -13 0 -13 -2 2 -13
15 -11 16 -15 3 -25 -8 -7 -13 -23 -11 -37 1 -14 -3 -25 -9 -25 -7 0 -4 -7 6
-14 10 -8 13 -16 8 -17 -6 -2 1 -9 15 -16 22 -10 24 -10 14 3 -12 13 -7 18 13
15 5 -1 6 3 2 9 -3 5 0 10 7 10 9 0 9 3 -2 10 -9 6 -11 10 -3 10 7 0 10 7 7
15 -5 11 -2 14 12 9 17 -6 17 -5 -1 9 -17 13 -18 16 -4 22 9 3 16 12 16 20 0
12 -3 12 -16 3 -14 -11 -14 -11 0 7 25 31 34 49 21 41 -20 -12 -14 2 11 25
l22 21 -25 -7 -25 -7 22 16 c16 12 22 25 19 46 -2 17 1 28 8 27 6 -1 10 4 9
11 -2 6 2 12 8 12 8 0 7 6 -2 17 -10 11 -10 14 -1 9 11 -7 18 12 13 38 -1 5 4
4 12 -2 11 -9 13 -8 12 6 0 9 -4 23 -8 29 -4 6 -2 15 4 19 8 4 9 3 5 -4 -4 -7
-1 -12 9 -12 9 0 14 4 11 9 -9 14 5 42 17 34 6 -4 8 0 4 10 -3 10 -2 17 4 17
6 0 7 6 3 13 -5 8 -2 7 9 -2 15 -12 17 -12 11 4 -5 13 -4 16 4 11 8 -5 12 0
12 14 0 12 5 18 10 15 6 -3 10 -1 10 5 0 6 4 9 9 5 5 -3 13 0 17 6 4 7 3 9 -4
5 -6 -3 -14 -2 -17 4 -4 6 -3 10 2 9 29 -5 53 2 47 14 -5 7 0 6 11 -3 17 -13
18 -13 13 1 -4 9 -1 16 8 16 7 0 11 -4 8 -9 -3 -4 2 -8 11 -8 10 0 13 -5 9
-12 -4 -7 -3 -8 5 -4 6 4 8 12 5 18 -5 7 -1 9 9 5 13 -5 17 -1 17 18 0 17 -6
25 -17 25 -14 0 -15 2 -5 9 8 4 -11 7 -45 6 -74 -3 -73 -3 -73 -16 0 -8 6 -7
18 2 15 13 16 12 3 -4 -10 -12 -17 -14 -26 -7 -9 8 -14 6 -19 -5 -4 -11 -2
-14 6 -9 7 4 8 3 4 -4 -4 -6 -13 -9 -20 -6 -8 3 -17 0 -22 -7 -4 -7 -3 -10 3
-6 5 3 10 0 10 -7 0 -8 -7 -12 -14 -9 -9 3 -16 -3 -20 -15 -6 -24 -24 -33 -43
-22 -11 7 -11 11 1 26 12 16 12 17 -1 9 -12 -6 -13 -5 -2 6 6 7 12 19 12 27 0
8 -5 10 -12 6 -10 -6 -10 -4 0 7 17 18 15 39 -4 39 -8 0 -12 5 -9 10 3 6 3 10
0 10 -4 0 -9 -9 -12 -20z m34 -149 c0 -10 -7 -18 -14 -17 -21 3 -28 17 -13 26
22 14 29 12 27 -9z"/>
<path d="M4004 935 c-5 -12 -9 -13 -21 -4 -11 10 -13 9 -11 -2 2 -8 -3 -13
-11 -11 -12 3 -12 1 -1 -13 7 -9 9 -15 4 -14 -26 5 -51 -3 -52 -16 -1 -8 -3
-22 -4 -30 -1 -8 -5 -12 -8 -10 -11 7 -50 -31 -42 -41 4 -4 -1 -2 -11 5 -15
12 -17 12 -11 -3 4 -10 0 -18 -11 -22 -9 -4 -14 -13 -11 -20 3 -8 -1 -14 -11
-14 -13 0 -13 -3 -3 -15 11 -13 10 -14 -5 -9 -12 5 -16 4 -11 -4 4 -6 -3 -16
-15 -23 -17 -9 -19 -13 -8 -20 11 -7 11 -9 -3 -9 -11 0 -16 -6 -13 -19 2 -11
-4 -26 -13 -33 -15 -12 -16 -11 -3 5 9 11 10 17 2 17 -11 0 -13 -5 -15 -32 -1
-7 -8 -19 -16 -26 -8 -8 -9 -11 -2 -7 6 3 12 2 12 -4 0 -5 -5 -11 -11 -13 -6
-2 -11 -16 -11 -31 0 -15 -4 -24 -8 -22 -12 7 -19 -20 -13 -46 5 -17 3 -20 -8
-14 -11 6 -12 5 -2 -5 9 -10 10 -17 2 -27 -7 -8 -8 -13 -1 -13 5 0 10 -6 9
-12 -1 -46 4 -57 24 -53 17 4 19 2 8 -11 -6 -8 -9 -17 -5 -21 3 -3 6 -1 6 6 0
7 11 11 28 9 18 -2 26 1 24 10 -1 8 2 11 8 7 6 -3 8 -11 5 -16 -4 -5 -1 -9 4
-9 6 0 11 8 11 18 0 14 2 15 10 2 8 -13 10 -12 10 3 0 10 4 16 9 12 12 -7 41
22 41 40 0 9 6 12 15 9 11 -5 13 -2 9 10 -6 14 5 21 28 17 4 0 5 5 2 13 -3 8
0 17 5 21 6 3 8 11 5 17 -4 7 -2 8 5 4 9 -6 9 -12 -1 -24 -12 -15 -11 -16 4
-3 10 7 15 17 13 22 -3 4 3 13 14 19 11 6 18 16 15 24 -3 7 3 19 13 27 17 13
17 13 3 -6 -14 -19 -14 -19 3 -6 13 10 15 17 6 27 -8 10 -6 12 10 9 12 -2 18
1 15 8 -2 7 4 17 14 23 16 10 18 8 17 -16 0 -16 -3 -26 -7 -23 -5 2 -8 -1 -8
-6 0 -6 6 -11 13 -11 8 0 8 -3 -2 -9 -12 -8 -12 -12 -2 -24 10 -13 8 -18 -11
-31 -12 -9 -17 -16 -10 -16 7 0 10 -5 7 -11 -11 -17 -12 -68 -1 -62 5 4 7 -1
3 -10 -4 -12 -1 -17 11 -18 10 0 12 -3 5 -6 -10 -3 -10 -7 0 -18 9 -9 14 -10
19 -1 5 7 8 5 8 -6 0 -9 5 -20 12 -24 7 -5 8 -3 4 5 -5 8 -3 12 5 10 29 -3 37
2 37 26 0 14 -3 24 -5 21 -9 -9 -33 22 -33 41 0 15 2 16 10 3 6 -9 10 -10 10
-3 0 6 -5 15 -10 18 -6 4 -8 15 -5 26 4 13 2 18 -7 16 -7 -2 -10 -2 -5 0 4 3
7 11 7 19 0 9 4 13 8 10 5 -3 9 1 9 9 0 8 -4 12 -9 9 -12 -8 -10 10 4 24 9 9
9 12 -1 12 -11 0 -11 3 -1 15 6 8 9 19 6 24 -4 5 -2 12 2 15 5 3 7 18 5 33 -4
22 -2 25 6 13 6 -8 11 -10 11 -5 0 6 -6 17 -12 24 -11 11 -10 13 2 9 11 -4 15
2 14 23 0 16 -4 32 -9 37 -5 4 -5 1 0 -7 5 -10 4 -12 -4 -7 -6 4 -9 12 -5 17
3 5 9 7 14 4 10 -6 26 41 21 64 -1 8 2 10 11 5 10 -6 11 -5 1 7 -12 15 -13 19
-13 45 0 10 -6 14 -15 10 -10 -3 -15 1 -15 12 0 15 -2 15 -10 2 -6 -9 -10 -10
-10 -3 0 7 8 17 18 23 15 10 15 10 -4 5 -18 -5 -21 -2 -18 20 2 23 0 24 -14
13 -10 -8 -13 -9 -9 -1 8 13 -30 12 -52 -2 -10 -5 -12 -4 -7 3 4 7 5 12 1 12
-3 0 -8 -7 -11 -15z m36 -60 c-7 -9 -15 -13 -19 -10 -3 3 1 10 9 15 21 14 24
12 10 -5z m26 -4 c-4 -5 -2 -21 4 -36 7 -17 7 -24 0 -20 -6 3 -10 -3 -10 -14
0 -11 -7 -27 -16 -35 -12 -12 -12 -16 -2 -16 7 -1 3 -6 -10 -13 -18 -10 -20
-15 -10 -26 7 -8 8 -11 2 -8 -15 9 -39 -24 -38 -51 1 -17 -8 -30 -30 -44 -17
-11 -23 -18 -14 -15 12 4 15 2 11 -9 -3 -7 -9 -14 -15 -14 -5 0 -7 -4 -3 -9 3
-6 -4 -8 -16 -6 -16 3 -18 1 -10 -8 7 -10 5 -17 -9 -27 -10 -7 -17 -17 -14
-22 3 -4 -2 -8 -10 -8 -9 0 -16 -4 -16 -10 0 -5 -9 -19 -20 -30 -12 -12 -18
-26 -13 -33 4 -7 0 -7 -10 2 -15 12 -17 12 -11 -4 5 -13 4 -16 -4 -11 -7 4
-12 1 -12 -7 0 -7 -11 -19 -24 -25 -19 -8 -26 -7 -39 8 -11 13 -12 21 -4 29
15 15 17 40 4 37 -7 -2 -9 -1 -4 1 4 3 5 9 2 13 -3 5 4 14 15 20 15 8 18 15
11 24 -6 7 -6 17 -1 26 6 8 10 11 10 5 0 -5 5 -3 10 6 5 9 8 26 5 38 -2 12 0
19 4 16 5 -2 15 3 22 12 10 12 10 14 2 9 -18 -10 -16 2 2 21 8 8 12 20 8 26
-4 7 0 8 11 4 10 -4 15 -3 11 3 -3 6 -1 10 6 10 7 0 10 3 6 6 -9 9 16 33 28
26 6 -3 4 2 -4 11 -12 15 -12 17 3 11 12 -5 15 -2 9 12 -4 12 -3 15 5 10 7 -4
12 -2 12 4 0 6 5 8 13 4 8 -6 8 -3 -1 9 -12 14 -11 16 7 12 12 -2 19 0 16 5
-7 11 31 51 39 43 3 -4 6 2 6 11 0 14 6 17 24 14 13 -3 32 1 42 9 21 15 27 17
20 4z m-36 -271 c0 -5 -4 -10 -10 -10 -5 0 -10 5 -10 10 0 6 5 10 10 10 6 0
10 -4 10 -10z m-265 -40 c3 -5 1 -10 -4 -10 -6 0 -11 5 -11 10 0 6 2 10 4 10
3 0 8 -4 11 -10z m318 -155 c-3 -9 -8 -14 -10 -11 -3 3 -2 9 2 15 9 16 15 13
8 -4z"/>
<path d="M3960 629 c0 -5 5 -7 10 -4 6 3 10 8 10 11 0 2 -4 4 -10 4 -5 0 -10
-5 -10 -11z"/>
<path d="M4405 939 c-13 -5 -15 -8 -5 -9 11 0 9 -6 -7 -19 -23 -19 -32 -38
-13 -26 6 3 10 2 10 -3 0 -6 -8 -13 -17 -16 -15 -6 -15 -8 -3 -16 9 -6 10 -10
3 -10 -7 0 -10 -10 -7 -24 2 -14 -1 -28 -7 -32 -7 -4 -9 -3 -5 4 3 6 2 13 -3
16 -11 7 -9 -13 2 -31 5 -7 4 -13 -2 -13 -5 0 -8 -10 -6 -22 3 -12 -1 -28 -8
-37 -9 -12 -9 -13 0 -7 9 5 11 2 7 -9 -5 -13 -9 -13 -23 -3 -14 12 -14 11 -3
-4 8 -10 10 -23 6 -30 -5 -8 -1 -8 11 2 17 14 17 14 5 -7 -8 -12 -19 -19 -25
-15 -5 3 -4 -1 3 -10 10 -12 10 -18 1 -23 -8 -6 -7 -10 2 -16 10 -6 10 -9 2
-9 -6 0 -10 -9 -8 -20 2 -11 0 -20 -5 -20 -5 0 -6 -7 -3 -17 4 -10 2 -14 -4
-10 -8 5 -10 -6 -8 -33 2 -22 -1 -40 -6 -40 -5 0 -9 -5 -9 -11 0 -5 5 -7 11
-3 7 4 6 -3 -2 -17 -17 -31 -22 -62 -9 -54 5 3 10 1 10 -4 0 -6 -4 -11 -10
-11 -5 0 -10 -5 -10 -11 0 -5 4 -8 9 -5 5 4 11 0 14 -6 3 -10 7 -10 20 1 19
15 23 36 5 25 -7 -4 -8 -3 -4 5 6 9 11 9 21 1 11 -9 12 -7 8 9 -3 14 -1 21 8
21 11 0 11 2 -1 10 -13 8 -12 10 3 10 10 0 15 5 12 10 -3 6 -1 10 4 10 6 0 11
4 11 10 0 5 -8 7 -17 4 -17 -5 -17 -5 -1 6 10 6 15 17 11 27 -4 9 -2 14 3 11
5 -3 14 0 21 7 10 11 10 15 0 18 -9 4 -9 6 1 6 6 1 12 8 12 17 0 8 4 13 9 9 6
-3 8 4 6 15 -2 12 3 24 14 30 12 6 17 18 16 35 -2 14 1 23 6 19 5 -3 9 2 9 11
0 10 5 13 13 9 8 -5 8 -2 -2 9 -7 9 -11 18 -7 18 3 1 11 3 16 4 6 1 13 3 18 4
4 1 0 5 -8 11 -12 8 -12 10 3 16 14 5 15 9 6 20 -10 12 -8 13 6 7 15 -5 17 -3
12 11 -4 9 -3 15 2 11 5 -3 12 4 16 15 4 11 11 17 17 14 6 -4 6 2 -1 15 -9 17
-9 20 3 15 8 -3 19 3 26 16 6 12 16 18 23 13 7 -4 5 2 -3 13 -8 10 -10 16 -6
12 5 -4 15 -3 23 4 11 9 13 8 11 -1 -2 -8 5 -15 15 -16 22 -4 36 -15 19 -15
-8 0 -9 -7 -2 -26 9 -23 8 -25 -7 -20 -14 6 -14 4 3 -15 10 -12 13 -19 7 -15
-7 4 -13 4 -14 -1 0 -4 -2 -16 -4 -26 -2 -9 1 -15 5 -12 5 3 12 0 16 -6 4 -8
3 -9 -4 -5 -7 4 -12 3 -12 -3 0 -6 -8 -7 -17 -4 -16 6 -16 5 1 -12 12 -12 14
-21 7 -23 -6 -2 -11 -8 -11 -13 0 -6 6 -7 13 -3 8 5 8 2 -2 -9 -7 -9 -10 -17
-5 -17 5 0 2 -5 -6 -10 -8 -5 -10 -10 -4 -10 6 0 11 -7 11 -15 0 -10 -6 -14
-15 -10 -12 4 -12 1 1 -19 14 -21 14 -26 2 -36 -8 -7 -13 -16 -10 -20 3 -5 1
-12 -5 -15 -8 -5 -7 -12 2 -23 11 -13 11 -14 -1 -7 -11 6 -13 4 -7 -10 4 -11
2 -22 -6 -26 -7 -4 -13 -19 -14 -33 0 -16 3 -23 10 -19 8 5 8 3 0 -8 -6 -8
-10 -27 -10 -43 1 -23 6 -30 23 -31 12 -1 19 3 16 8 -4 6 0 8 9 4 22 -8 30 3
15 21 -9 13 -9 14 1 8 6 -4 12 -2 12 3 0 6 -5 11 -12 11 -6 0 -4 6 7 13 14 11
15 16 5 22 -9 6 -11 4 -5 -5 6 -9 4 -11 -5 -5 -11 7 -10 10 1 19 8 6 14 27 13
46 0 19 2 40 5 45 7 13 11 33 14 67 1 15 6 30 10 34 12 12 8 26 -5 18 -9 -5
-9 -2 1 9 7 9 10 17 5 17 -4 0 1 7 12 16 10 8 13 13 7 9 -16 -8 -16 0 -2 27 7
14 8 23 1 30 -12 12 -4 41 9 33 8 -6 4 28 -6 45 -3 6 0 10 7 10 9 0 9 3 -2 10
-12 8 -12 10 -1 10 11 0 11 3 1 15 -10 12 -10 15 0 15 9 0 10 3 1 13 -6 8 -8
17 -4 20 3 4 1 7 -5 7 -6 0 -14 9 -17 20 -3 11 -13 20 -21 20 -8 0 -13 3 -11
8 3 4 -12 7 -33 7 -28 0 -36 -3 -32 -14 4 -11 1 -13 -12 -8 -13 5 -19 1 -23
-13 -3 -11 -10 -17 -16 -13 -6 3 -7 1 -3 -5 4 -7 -5 -24 -21 -39 -15 -14 -21
-22 -13 -18 12 7 13 6 3 -6 -6 -8 -11 -18 -11 -22 0 -5 -4 -12 -8 -15 -4 -4
-4 -1 0 6 4 6 2 12 -5 12 -7 0 -9 -8 -6 -21 3 -12 0 -22 -9 -26 -8 -3 -12 -9
-9 -13 3 -5 1 -11 -5 -15 -5 -3 -10 -1 -10 6 0 7 -3 10 -6 7 -3 -4 -1 -16 6
-27 8 -16 8 -21 -2 -19 -6 2 -12 -4 -13 -12 0 -8 -6 -14 -12 -13 -7 2 -10 -7
-7 -22 4 -21 0 -25 -18 -25 -19 0 -20 -2 -8 -10 13 -8 12 -10 -3 -10 -10 0
-16 -4 -12 -9 3 -5 2 -12 -3 -15 -4 -2 -8 8 -7 24 0 16 2 28 5 28 26 -2 30 3
15 19 -16 15 -16 18 -1 28 12 9 13 14 3 25 -10 10 -9 11 2 5 11 -6 13 -4 8 9
-5 13 -3 17 6 13 14 -5 16 30 2 53 -6 9 -4 11 5 5 10 -6 12 -3 7 14 -4 16 -2
21 8 17 14 -5 15 11 1 33 -6 10 -5 12 2 7 7 -4 12 -4 13 1 0 4 2 17 4 27 2 11
0 27 -5 35 -5 9 -10 12 -10 6 0 -6 -3 -5 -8 1 -4 7 -15 8 -27 3z m-10 -369
c-10 -11 -21 -18 -23 -15 -3 3 3 12 14 20 27 20 30 18 9 -5z m225 -171 c0 -5
-4 -9 -8 -9 -5 0 -9 7 -9 15 0 8 4 12 9 9 4 -3 8 -9 8 -15z"/>
<path d="M4370 920 c0 -5 5 -10 11 -10 5 0 7 5 4 10 -3 6 -8 10 -11 10 -2 0
-4 -4 -4 -10z"/>
<path d="M1466 858 c3 -5 10 -6 15 -3 13 9 11 12 -6 12 -8 0 -12 -4 -9 -9z"/>
<path d="M3883 855 c0 -8 4 -12 9 -9 5 3 6 10 3 15 -9 13 -12 11 -12 -6z"/>
<path d="M6280 829 c0 -5 5 -7 10 -4 6 3 10 8 10 11 0 2 -4 4 -10 4 -5 0 -10
-5 -10 -11z"/>
<path d="M1085 541 c-3 -5 0 -13 6 -17 7 -4 9 -3 5 4 -3 5 0 13 6 15 9 4 10 6
1 6 -6 1 -14 -3 -18 -8z"/>
<path d="M4615 540 c4 -6 11 -8 16 -5 14 9 11 15 -7 15 -8 0 -12 -5 -9 -10z"/>
<path d="M4017 485 c3 -8 9 -12 14 -9 12 7 11 11 -5 17 -10 4 -13 1 -9 -8z"/>
<path d="M3507 451 c3 -12 9 -24 13 -26 12 -8 6 23 -8 37 -8 8 -9 5 -5 -11z"/>
<path d="M4836 392 c-3 -5 1 -9 9 -9 8 0 12 4 9 9 -3 4 -7 8 -9 8 -2 0 -6 -4
-9 -8z"/>
</g>
</svg>
