<svg width="79" height="79" viewBox="0 0 79 79" fill="none" xmlns="http://www.w3.org/2000/svg">
<path d="M30 57L57 39L30 22V57ZM39 79C33.5358 79 28.8058 78.0751 24 76C19.1942 73.9249 15.555 70.5524 12 67C8.445 63.445 5.07243 59.8058 3 55C0.927567 50.1942 0.00263333 44.4642 0 39C0 33.5358 0.924933 28.8058 3 24C5.07507 19.1942 8.44763 15.555 12 12C15.555 8.445 19.1942 5.07243 24 3C28.8058 0.927567 33.5358 0.00263333 39 0C44.4642 0 50.1942 0.924933 55 3C59.8058 5.07507 63.445 8.44763 67 12C70.555 15.555 73.9249 19.1942 76 24C78.0751 28.8058 79.0026 33.5358 79 39C79 44.4642 78.0751 50.1942 76 55C73.9249 59.8058 70.5524 63.445 67 67C63.445 70.555 59.8058 73.9249 55 76C50.1942 78.0751 44.4642 79.0026 39 79Z" fill="#BDBDBD" fill-opacity="0.87"/>
</svg>
